<?xml version="1.0" encoding="utf-8"?>
<!-- Generator: Adobe Illustrator 22.0.0, SVG Export Plug-In . SVG Version: 6.00 Build 0)  -->
<svg version="1.1" id="图层_1" xmlns="http://www.w3.org/2000/svg" xmlns:xlink="http://www.w3.org/1999/xlink" x="0px" y="0px"
	 viewBox="0 0 1307 756" style="enable-background:new 0 0 1307 756;" xml:space="preserve">
<style type="text/css">
	.st0{fill:#323232;}
	.st1{fill:#FFFFFF;stroke:#323232;stroke-width:2;stroke-dasharray:0,0;}
	.st2{font-family:'MicrosoftYaHei';}
	.st3{font-size:12.632px;}
	.st4{fill:none;stroke:#000000;stroke-width:2;stroke-miterlimit:10;}
	.st5{fill:#FF1A24;}
	.st6{fill:none;stroke:#FF1A24;stroke-width:2;stroke-miterlimit:10;}
	.st7{fill:#0076AA;}
	.st8{fill:none;stroke:#0076AA;stroke-width:2;stroke-miterlimit:10;}
	.st9{fill:#0049FF;}
	.st10{fill:none;stroke:#0049FF;stroke-width:2;stroke-miterlimit:10;}
	.st11{fill:#0012A7;}
	.st12{fill:none;stroke:#0012A7;stroke-width:2;stroke-miterlimit:10;}
	.st13{fill:#39D5FF;stroke:#FFFFFF;stroke-miterlimit:10;}
	.st14{fill:none;stroke:#39D5FF;stroke-width:2;stroke-miterlimit:10;}
	.st15{stroke:#FFFFFF;stroke-miterlimit:10;}
	.st16{fill:#FFFFFF;}
	.st17{font-family:'ArialMT';}
	.st18{font-size:12px;}
	.st19{fill:#FF1A24;stroke:#FFFFFF;stroke-miterlimit:10;}
	.st20{fill:#0076AA;stroke:#FFFFFF;stroke-miterlimit:10;}
	.st21{fill:#00B7AA;stroke:#FFFFFF;stroke-miterlimit:10;}
	.st22{fill:#0049FF;stroke:#FFFFFF;stroke-miterlimit:10;}
	.st23{fill:#0012A7;stroke:#FFFFFF;stroke-miterlimit:10;}
	.st24{fill:#0044AA;}
	.st25{fill:none;stroke:#0044AA;stroke-width:2;stroke-miterlimit:10;}
	.st26{fill:#003864;}
	.st27{fill:none;stroke:#003864;stroke-width:2;stroke-miterlimit:10;}
	.st28{fill:#001864;}
	.st29{fill:none;stroke:#001864;stroke-width:2;stroke-miterlimit:10;}
	.st30{fill:#0018D0;stroke:#FFFFFF;stroke-miterlimit:10;}
	.st31{fill:none;stroke:#0018D0;stroke-width:2;stroke-miterlimit:10;}
	.st32{fill:#00182C;}
	.st33{fill:none;stroke:#00182C;stroke-width:2;stroke-miterlimit:10;}
	.st34{fill:#0044AA;stroke:#FFFFFF;stroke-miterlimit:10;}
	.st35{fill:#003864;stroke:#FFFFFF;stroke-miterlimit:10;}
	.st36{fill:#001864;stroke:#FFFFFF;stroke-miterlimit:10;}
	.st37{fill:#00182C;stroke:#FFFFFF;stroke-miterlimit:10;}
</style>
<g id="右">
</g>
<g>
	
		<g id="SvgjsSvg1006" inkscape:version="1.1 (c68e22c387, 2021-05-23)" sodipodi:docname="M2Dock闂傚倷娴囧Δ鐘虫倐閹ê鏉堚晝鐒兼繝銏ｅ煐閸旀牠鎮￠弴銏＄厵闁瑰啯姣愰梺鐟扮仼缂佽鲸甯掗悾婵嬪礋閸犳岸姊虹化鏇熸珔閻庢碍婢橀悾宄拔熺捄銊х＜闁逞冪劦闁荤偟鐨.svg" xmlns:inkscape="http://www.inkscape.org/namespaces/inkscape" xmlns:sodipodi="http://sodipodi.sourceforge.net/DTD/sodipodi-0.dtd" xmlns:svg="http://www.w3.org/2000/svg">
		
			<sodipodi:namedview  bordercolor="#666666" borderopacity="1.0" id="namedview813" inkscape:current-layer="SvgjsSvg1006" inkscape:cx="828.07702" inkscape:cy="468.44835" inkscape:pagecheckerboard="0" inkscape:pageopacity="0.0" inkscape:pageshadow="2" inkscape:window-height="1011" inkscape:window-maximized="1" inkscape:window-width="1920" inkscape:window-x="-8" inkscape:window-y="-8" inkscape:zoom="0.85921959" pagecolor="#ffffff" showgrid="false">
			</sodipodi:namedview>
		
			<image style="overflow:visible;enable-background:new    ;" width="3007" height="2820" id="image903" xlink:href="./A2C742FF.jpg"  transform="matrix(0.2609 0 0 0.272 139.0211 -27.75)">
		</image>
	</g>
	<path class="st0" d="M-137.5,22.9"/>
	<path id="SvgjsPath1774_13_" marker-end="url(#SvgjsMarker1777)" marker-start="url(#SvgjsMarker1775)" class="st1" d="
		M928.7,279.4"/>
	<text transform="matrix(1 0 0 1 898.2757 283.7958)" class="st0 st2 st3">S2 (5.1kΩ)</text>
	<circle cx="792.2" cy="327.1" r="5"/>
	<line class="st4" x1="787.2" y1="328.1" x2="918.6" y2="328.1"/>
	<circle class="st5" cx="792.2" cy="348.6" r="5"/>
	<line class="st6" x1="787.2" y1="349.6" x2="919" y2="349.6"/>
	<circle class="st7" cx="792.2" cy="370.2" r="5"/>
	<line class="st8" x1="787.2" y1="370.9" x2="918.4" y2="370.9"/>
	<circle class="st7" cx="791.8" cy="391.8" r="4.6"/>
	<line class="st8" x1="787.2" y1="392.7" x2="918.8" y2="392.7"/>
	<circle class="st7" cx="792.2" cy="413.3" r="5"/>
	<line class="st8" x1="787.2" y1="414.3" x2="917.8" y2="414.3"/>
	<circle class="st9" cx="792.2" cy="434.9" r="5"/>
	<line class="st10" x1="787.2" y1="435.9" x2="919.1" y2="435.9"/>
	<circle class="st11" cx="792.2" cy="456.4" r="5"/>
	<line class="st12" x1="787.2" y1="457.4" x2="919.1" y2="457.4"/>
	<circle class="st11" cx="792.2" cy="478" r="5"/>
	<line class="st12" x1="787.2" y1="479" x2="919.1" y2="479"/>
	<circle class="st11" cx="792.2" cy="499.5" r="5"/>
	<line class="st12" x1="787.2" y1="500.5" x2="919.1" y2="500.5"/>
	<circle class="st11" cx="792.2" cy="521.1" r="5"/>
	<line class="st12" x1="787.2" y1="522.1" x2="918.7" y2="522.1"/>
	<g>
		<circle class="st13" cx="793.2" cy="279.4" r="6"/>
		<line class="st14" x1="790.5" y1="279.4" x2="887.9" y2="279.4"/>
	</g>
	<polygon class="st15" points="986.6,281.1 972.5,289.2 972.5,273 	"/>
	<text transform="matrix(1 0 0 1 930.9161 329.7015)" class="st0 st2 st3">GND</text>
	<polygon points="986.6,326.1 972.6,334.2 972.6,318 	"/>
	<text transform="matrix(1 0 0 1 944.252 352.2015)" class="st0 st2 st3">5V</text>
	<polygon points="986.6,348.6 972.6,356.7 972.6,340.5 	"/>
	<text transform="matrix(1 0 0 1 935.2957 375.8682)" class="st0 st2 st3">PH6</text>
	<polygon points="986.6,372.3 972.6,380.3 972.6,364.2 	"/>
	<text transform="matrix(1 0 0 1 935.2957 397.5348)" class="st0 st2 st3">PH7</text>
	<polygon points="986.6,393.9 972.6,402 972.6,385.8 	"/>
	<path id="SvgjsPath1774_12_" marker-end="url(#SvgjsMarker1777)" marker-start="url(#SvgjsMarker1775)" class="st1" d="
		M935.7,412.8"/>
	<text transform="matrix(1 0 0 1 935.2959 418.0348)" class="st0 st2 st3">PH8</text>
	<polygon points="986.6,414.4 972.5,422.5 972.5,406.3 	"/>
	<path id="SvgjsPath1774_11_" marker-end="url(#SvgjsMarker1777)" marker-start="url(#SvgjsMarker1775)" class="st1" d="
		M974.7,434.1"/>
	<text transform="matrix(1 0 0 1 933.2422 439.3682)" class="st0 st2 st3">ADC</text>
	<polygon class="st15" points="986.6,435.8 972.5,443.8 972.5,427.7 	"/>
	<path id="SvgjsPath1774_10_" marker-end="url(#SvgjsMarker1777)" marker-start="url(#SvgjsMarker1775)" class="st1" d="
		M974.7,455.4"/>
	<text transform="matrix(1 0 0 1 931.5586 460.7015)" class="st0 st2 st3">PH 0</text>
	<polygon class="st15" points="986.6,457.1 972.5,465.2 972.5,449 	"/>
	<path id="SvgjsPath1774_9_" marker-end="url(#SvgjsMarker1777)" marker-start="url(#SvgjsMarker1775)" class="st1" d="M974.7,476.8
		"/>
	<text transform="matrix(1 0 0 1 931.5586 482.0348)" class="st0 st2 st3">PH 1</text>
	<polygon class="st15" points="986.6,478.4 972.5,486.5 972.5,470.3 	"/>
	<path id="SvgjsPath1774_8_" marker-end="url(#SvgjsMarker1777)" marker-start="url(#SvgjsMarker1775)" class="st1" d="M974.7,498.1
		"/>
	<text transform="matrix(1 0 0 1 931.5586 503.3682)" class="st0 st2 st3">PH 2</text>
	<polygon class="st15" points="986.6,499.8 972.5,507.8 972.5,491.7 	"/>
	<path id="SvgjsPath1774_7_" marker-end="url(#SvgjsMarker1777)" marker-start="url(#SvgjsMarker1775)" class="st1" d="M974.7,519.4
		"/>
	<text transform="matrix(1 0 0 1 931.5586 524.7015)" class="st0 st2 st3">PH 3</text>
	<polygon class="st15" points="986.6,521.1 972.5,529.2 972.5,513 	"/>
	<g>
		<g>
			<path id="SvgjsPath1796_23_" class="st13" d="M993.7,272.7c0-2.6,1.3-3.9,3.9-3.9h78.2c2.6,0,3.9,1.3,3.9,3.9V285
				c0,2.6-1.3,3.9-3.9,3.9h-78.2c-2.6,0-3.9-1.3-3.9-3.9V272.7z"/>
			<text transform="matrix(1 0 0 1 1008.2693 282.3304)" class="st16 st17 st18">GPADC 0</text>
		</g>
		<g>
			<g>
				<path id="SvgjsPath1796_22_" class="st15" d="M993.7,317.8c0-2.6,1.3-3.9,3.9-3.9h78.2c2.6,0,3.9,1.3,3.9,3.9V330
					c0,2.6-1.3,3.9-3.9,3.9h-78.2c-2.6,0-3.9-1.3-3.9-3.9V317.8z"/>
				<text transform="matrix(1 0 0 1 1022.3094 327.4329)" class="st16 st17 st18">GND</text>
			</g>
			<g>
				<path id="SvgjsPath1796_21_" class="st19" d="M993.7,340.3c0-2.6,1.3-3.9,3.9-3.9h78.2c2.6,0,3.9,1.3,3.9,3.9v12.2
					c0,2.6-1.3,3.9-3.9,3.9h-78.2c-2.6,0-3.9-1.3-3.9-3.9V340.3z"/>
				<text transform="matrix(1 0 0 1 1028.6808 349.8928)" class="st16 st17 st18">5V</text>
			</g>
			<g>
				<g>
					<path id="SvgjsPath1796_19_" class="st20" d="M993.7,385.2c0-2.6,1.2-3.9,3.9-3.9h78.3c2.6,0,3.9,1.3,3.9,3.9v12.2
						c0,2.6-1.2,3.9-3.9,3.9h-78.3c-2.6,0-3.9-1.3-3.9-3.9V385.2z"/>
					<text transform="matrix(1 0 0 1 1013.134 394.8136)" class="st16 st17 st18">PWM_7</text>
				</g>
				<g>
					<g>
						<path id="SvgjsPath1796_20_" class="st20" d="M993.7,362.7c0-2.6,1.2-3.8,3.8-3.8h78.3c2.6,0,3.8,1.2,3.8,3.8V375
							c0,2.6-1.2,3.8-3.8,3.8h-78.3c-2.6,0-3.8-1.2-3.8-3.8L993.7,362.7L993.7,362.7z"/>
						<text transform="matrix(1 0 0 1 1013.1349 372.3532)" class="st16 st17 st18">PWM_6</text>
					</g>
					<g>
						<path id="SvgjsPath1796_37_" class="st20" d="M993.7,407.7c0-2.6,1.2-3.9,3.8-3.9h78.3c2.6,0,3.8,1.3,3.8,3.9v12.2
							c0,2.6-1.2,3.9-3.8,3.9h-78.3c-2.6,0-3.8-1.3-3.8-3.9L993.7,407.7L993.7,407.7z"/>
						<text transform="matrix(1 0 0 1 1012.8771 417.2739)" class="st16 st17 st18">PWM_8</text>
					</g>
				</g>
				<g>
					<g>
						<path id="SvgjsPath1796_25_" class="st21" d="M1088.4,362.7c0-2.6,1.2-3.8,3.9-3.8h78.2c2.6,0,3.9,1.2,3.9,3.8V375
							c0,2.6-1.2,3.8-3.9,3.8h-78.2c-2.6,0-3.9-1.2-3.9-3.8V362.7z"/>
						<text transform="matrix(1 0 0 1 1115.3733 372.3532)" class="st16 st17 st18">GPIO</text>
					</g>
					<g>
						<path id="SvgjsPath1796_13_" class="st21" d="M1088.4,385.2c0-2.6,1.2-3.8,3.9-3.8h78.2c2.6,0,3.9,1.2,3.9,3.8v12.3
							c0,2.6-1.2,3.8-3.9,3.8h-78.2c-2.6,0-3.9-1.2-3.9-3.8V385.2z"/>
						<text transform="matrix(1 0 0 1 1115.3737 394.8133)" class="st16 st17 st18">GPIO</text>
					</g>
					<g>
						<path id="SvgjsPath1796_18_" class="st21" d="M1088.4,407.6c0-2.6,1.2-3.8,3.9-3.8h78.2c2.6,0,3.9,1.2,3.9,3.8v12.3
							c0,2.6-1.2,3.8-3.9,3.8h-78.2c-2.6,0-3.9-1.2-3.9-3.8V407.6z"/>
						<text transform="matrix(1 0 0 1 1115.3729 417.274)" class="st16 st17 st18">GPIO</text>
					</g>
				</g>
			</g>
			<g>
				<path id="SvgjsPath1796_16_" class="st22" d="M993.7,430.1c0-2.6,1.3-3.9,3.9-3.9h78.2c2.6,0,3.9,1.3,3.9,3.9v12.2
					c0,2.6-1.3,3.9-3.9,3.9h-78.2c-2.6,0-3.9-1.3-3.9-3.9V430.1z"/>
				<text transform="matrix(1 0 0 1 1008.2692 439.7344)" class="st16 st17 st18">GPADC 0</text>
			</g>
			<g>
				<g>
					<path id="SvgjsPath1796_35_" class="st23" d="M993.7,517.5c0-2.6,1.2-3.9,3.8-3.9h78.3c2.6,0,3.8,1.3,3.8,3.9v12.2
						c0,2.6-1.2,3.9-3.8,3.9h-78.3c-2.6,0-3.8-1.3-3.8-3.9L993.7,517.5L993.7,517.5z"/>
					<text transform="matrix(1 0 0 1 1005.7798 527.0756)" class="st16 st17 st18">SPI 1_CS 0</text>
				</g>
				<g>
					<path id="SvgjsPath1796_36_" class="st23" d="M993.7,452.1c0-2.3,1.2-3.4,3.8-3.4h78.3c2.6,0,3.8,1.1,3.8,3.4v10.7
						c0,2.3-1.2,3.4-3.8,3.4h-78.3c-2.6,0-3.8-1.1-3.8-3.4L993.7,452.1L993.7,452.1z"/>
					<text transform="matrix(1 0 0 1 1007.2138 460.9445)" class="st16 st17 st18">SPI 1_CLK</text>
				</g>
				<g>
					<path id="SvgjsPath1796_33_" class="st23" d="M993.7,472.5c0-2.6,1.2-3.9,3.8-3.9h78.3c2.6,0,3.8,1.3,3.8,3.9v12.2
						c0,2.6-1.2,3.9-3.8,3.9h-78.3c-2.6,0-3.8-1.3-3.8-3.9L993.7,472.5L993.7,472.5z"/>
					<text transform="matrix(1 0 0 1 1002.792 482.1549)" class="st16 st17 st18">SPI 1_MOSI</text>
				</g>
				<g>
					<path id="SvgjsPath1796_34_" class="st23" d="M993.7,495c0-2.6,1.2-3.9,3.8-3.9h78.3c2.6,0,3.8,1.3,3.8,3.9v12.2
						c0,2.6-1.2,3.9-3.8,3.9h-78.3c-2.6,0-3.8-1.3-3.8-3.9L993.7,495L993.7,495z"/>
					<text transform="matrix(1 0 0 1 1002.792 504.6152)" class="st16 st17 st18">SPI 1_MISO</text>
				</g>
			</g>
		</g>
	</g>
	<path id="SvgjsPath1774" marker-end="url(#SvgjsMarker1777)" marker-start="url(#SvgjsMarker1775)" class="st1" d="M333.5,279.4"/>
	<text transform="matrix(1 0 0 1 293.2027 284.7015)" class="st0 st2 st3">S1 (0Ω)</text>
	<circle class="st7" cx="472" cy="327.1" r="5"/>
	<line class="st8" x1="470.6" y1="328.1" x2="346" y2="328.1"/>
	<circle class="st24" cx="472" cy="348.6" r="5"/>
	<line class="st25" x1="473" y1="349.6" x2="346" y2="349.6"/>
	<circle class="st26" cx="472" cy="370.2" r="5"/>
	<line class="st27" x1="471.9" y1="370.9" x2="346" y2="370.9"/>
	<circle class="st26" cx="472.4" cy="391.8" r="4.6"/>
	<line class="st27" x1="472.4" y1="392.7" x2="346" y2="392.7"/>
	<circle class="st28" cx="472" cy="413.3" r="5"/>
	<line class="st29" x1="472.1" y1="414.3" x2="346" y2="414.3"/>
	<circle class="st28" cx="472" cy="434.9" r="5"/>
	<line class="st29" x1="472.1" y1="435.9" x2="346" y2="435.9"/>
	<circle class="st30" cx="472" cy="456.4" r="5"/>
	<line class="st31" x1="472.1" y1="457.4" x2="346" y2="457.4"/>
	<circle class="st30" cx="472" cy="478" r="5"/>
	<line class="st31" x1="472.1" y1="479" x2="346" y2="479"/>
	<circle class="st32" cx="472" cy="499.5" r="5"/>
	<line class="st33" x1="472.1" y1="500.5" x2="346" y2="500.5"/>
	<circle class="st32" cx="472" cy="521.1" r="5"/>
	<line class="st33" x1="472.1" y1="522.1" x2="346" y2="522.1"/>
	<circle class="st13" cx="473" cy="278.4" r="5"/>
	<line class="st14" x1="470.3" y1="279.4" x2="346" y2="279.4"/>
	<polygon points="269.8,281.1 283.8,289.2 283.8,273 	"/>
	<text transform="matrix(1 0 0 1 293.2028 329.7015)" class="st0 st2 st3">PF6</text>
	<polygon points="269.8,326.1 283.8,334.2 283.8,318 	"/>
	<text transform="matrix(1 0 0 1 293.2028 352.2015)" class="st0 st2 st3">RST</text>
	<polygon points="269.8,348.6 283.8,356.7 283.8,340.5 	"/>
	<text transform="matrix(1 0 0 1 293.2029 375.8682)" class="st0 st2 st3">PG7</text>
	<polygon points="269.8,372.3 283.8,380.3 283.8,364.2 	"/>
	<text transform="matrix(1 0 0 1 293.2029 397.5348)" class="st0 st2 st3">PG6</text>
	<polygon points="269.8,393.9 283.8,402 283.8,385.8 	"/>
	<path id="SvgjsPath1774_1_" marker-end="url(#SvgjsMarker1777)" marker-start="url(#SvgjsMarker1775)" class="st1" d="M359.7,412.8
		"/>
	<text transform="matrix(1 0 0 1 293.2028 418.0349)" class="st0 st2 st3">PH12</text>
	<polygon class="st15" points="269.8,414.4 283.8,422.5 283.8,406.3 	"/>
	<path id="SvgjsPath1774_2_" marker-end="url(#SvgjsMarker1777)" marker-start="url(#SvgjsMarker1775)" class="st1" d="M359.7,434.1
		"/>
	<text transform="matrix(1 0 0 1 293.2028 439.3682)" class="st0 st2 st3">PH11</text>
	<polygon class="st15" points="269.8,435.8 283.8,443.8 283.8,427.7 	"/>
	<path id="SvgjsPath1774_3_" marker-end="url(#SvgjsMarker1777)" marker-start="url(#SvgjsMarker1775)" class="st1" d="M359.7,455.4
		"/>
	<text transform="matrix(1 0 0 1 293.2028 460.7015)" class="st0 st2 st3">PH14</text>
	<polygon class="st15" points="269.8,457.1 283.8,465.2 283.8,449 	"/>
	<path id="SvgjsPath1774_4_" marker-end="url(#SvgjsMarker1777)" marker-start="url(#SvgjsMarker1775)" class="st1" d="M359.7,476.8
		"/>
	<text transform="matrix(1 0 0 1 293.2028 482.0349)" class="st0 st2 st3">PH13</text>
	<polygon class="st15" points="269.8,478.4 283.8,486.5 283.8,470.3 	"/>
	<path id="SvgjsPath1774_5_" marker-end="url(#SvgjsMarker1777)" marker-start="url(#SvgjsMarker1775)" class="st1" d="M359.7,498.1
		"/>
	<text transform="matrix(1 0 0 1 293.2028 503.3682)" class="st0 st2 st3">PH10</text>
	<polygon class="st15" points="269.8,499.8 283.8,507.8 283.8,491.7 	"/>
	<path id="SvgjsPath1774_6_" marker-end="url(#SvgjsMarker1777)" marker-start="url(#SvgjsMarker1775)" class="st1" d="M359.7,519.4
		"/>
	<text transform="matrix(1 0 0 1 293.2028 524.7015)" class="st0 st2 st3">PH 9</text>
	<polygon class="st15" points="269.8,521.1 283.8,529.2 283.8,513 	"/>
	<g>
		<g>
			<path id="SvgjsPath1796" class="st13" d="M171.8,272.7c0-2.6,1.3-3.9,3.9-3.9h78.2c2.6,0,3.9,1.3,3.9,3.9v12.2
				c0,2.6-1.3,3.9-3.9,3.9h-78.2c-2.6,0-3.9-1.3-3.9-3.9V272.7z"/>
			<text transform="matrix(1 0 0 1 186.3572 282.3304)" class="st16 st17 st18">GPADC 0</text>
		</g>
		<g>
			<g>
				<path id="SvgjsPath1796_1_" class="st20" d="M171.8,317.8c0-2.6,1.3-3.9,3.8-3.9H254c2.6,0,3.8,1.3,3.8,3.9V330
					c0,2.6-1.3,3.9-3.8,3.9h-78.3c-2.6,0-3.8-1.3-3.8-3.9L171.8,317.8L171.8,317.8z"/>
				<text transform="matrix(1 0 0 1 180.8431 327.4325)" class="st16 st17 st18">SDC 0-DET</text>
			</g>
			<g>
				<path id="SvgjsPath1796_2_" class="st34" d="M171.8,339.6c0-2.6,1.3-3.9,3.9-3.9h78.2c2.6,0,3.9,1.3,3.9,3.9v12.2
					c0,2.6-1.3,3.9-3.9,3.9h-78.2c-2.6,0-3.9-1.3-3.9-3.9V339.6z"/>
				<text transform="matrix(1 0 0 1 194.8289 349.2414)" class="st16 st17 st18">RESET</text>
			</g>
			<g>
				<g>
					<path id="SvgjsPath1796_3_" class="st35" d="M171.8,361.4c0-2.6,1.3-3.8,3.9-3.8H254c2.6,0,3.9,1.2,3.9,3.8v12.3
						c0,2.6-1.3,3.8-3.9,3.8h-78.3c-2.6,0-3.9-1.2-3.9-3.8V361.4z"/>
					<text transform="matrix(1 0 0 1 182.6731 371.0501)" class="st16 st17 st18">UART 1_TX</text>
				</g>
				<g>
					<path id="SvgjsPath1796_4_" class="st35" d="M171.8,383.2c0-2.6,1.3-3.9,3.8-3.9H254c2.7,0,3.8,1.3,3.8,3.9v12.2
						c0,2.6-1.3,3.9-3.8,3.9h-78.3c-2.7,0-3.8-1.3-3.8-3.9L171.8,383.2L171.8,383.2z"/>
					<text transform="matrix(1 0 0 1 181.731 392.8581)" class="st16 st17 st18">UART 1_RX</text>
				</g>
			</g>
			<g>
				<g>
					<path id="SvgjsPath1796_5_" class="st36" d="M171.8,405c0-2.6,1.3-3.9,3.9-3.9h78.2c2.6,0,3.9,1.3,3.9,3.9v12.2
						c0,2.6-1.3,3.9-3.9,3.9h-78.2c-2.6,0-3.9-1.3-3.9-3.9V405z"/>
					<text transform="matrix(1 0 0 1 180.4227 414.6667)" class="st16 st17 st18">TWI 2_SDA</text>
				</g>
				<g>
					<path id="SvgjsPath1796_6_" class="st36" d="M171.8,426.9c0-2.6,1.3-3.9,3.9-3.9h78.2c2.6,0,3.9,1.3,3.9,3.9v12.2
						c0,2.6-1.3,3.9-3.9,3.9h-78.2c-2.6,0-3.9-1.3-3.9-3.9V426.9z"/>
					<text transform="matrix(1 0 0 1 181.0711 436.4753)" class="st16 st17 st18">TWI 2_SCK</text>
				</g>
			</g>
			<g>
				<g>
					<path id="SvgjsPath1796_7_" class="st30" d="M171.8,448.7c0-2.6,1.3-3.9,3.9-3.9h78.2c2.6,0,3.9,1.3,3.9,3.9v12.2
						c0,2.6-1.3,3.9-3.9,3.9h-78.2c-2.6,0-3.9-1.3-3.9-3.9V448.7L171.8,448.7z"/>
					<text transform="matrix(1 0 0 1 198.8364 458.2842)" class="st16 st17 st18">GPIO</text>
				</g>
				<g>
					<path id="SvgjsPath1796_32_" class="st30" d="M171.8,470.5c0-2.6,1.3-3.9,3.9-3.9h78.2c2.6,0,3.9,1.3,3.9,3.9v12.2
						c0,2.6-1.3,3.9-3.9,3.9h-78.2c-2.6,0-3.9-1.3-3.9-3.9V470.5z"/>
					<text transform="matrix(1 0 0 1 198.8366 480.0931)" class="st16 st17 st18">GPIO</text>
				</g>
			</g>
			<g>
				<g>
					<path id="SvgjsPath1796_9_" class="st37" d="M171.8,492.3c0-2.6,1.3-3.9,3.9-3.9h78.2c2.6,0,3.9,1.3,3.9,3.9v12.2
						c0,2.6-1.3,3.9-3.9,3.9h-78.2c-2.6,0-3.9-1.3-3.9-3.9V492.3z"/>
					<text transform="matrix(1 0 0 1 180.129 501.9017)" class="st16 st17 st18">UART 0_RX</text>
				</g>
				<g>
					<path id="SvgjsPath1796_10_" class="st37" d="M171.8,514.1c0-2.6,1.3-3.9,3.9-3.9h78.2c2.6,0,3.9,1.3,3.9,3.9v12.2
						c0,2.6-1.3,3.9-3.9,3.9h-78.2c-2.6,0-3.9-1.3-3.9-3.9V514.1z"/>
					<text transform="matrix(1 0 0 1 181.0712 523.71)" class="st16 st17 st18">UART 0_TX</text>
				</g>
			</g>
		</g>
	</g>
</g>
</svg>
