<?xml version="1.0" encoding="UTF-8" standalone="no"?>
<!-- Created with Inkscape (http://www.inkscape.org/) -->

<svg
   xmlns:dc="http://purl.org/dc/elements/1.1/"
   xmlns:cc="http://creativecommons.org/ns#"
   xmlns:rdf="http://www.w3.org/1999/02/22-rdf-syntax-ns#"
   xmlns:svg="http://www.w3.org/2000/svg"
   xmlns="http://www.w3.org/2000/svg"
   xmlns:xlink="http://www.w3.org/1999/xlink"
   xmlns:sodipodi="http://sodipodi.sourceforge.net/DTD/sodipodi-0.dtd"
   xmlns:inkscape="http://www.inkscape.org/namespaces/inkscape"
   id="svg4354"
   sodipodi:version="0.32"
   inkscape:version="0.92.2 5c3e80d, 2017-08-06"
   width="400"
   height="273"
   version="1.0"
   sodipodi:docname="Pinhole-camera.svg"
   inkscape:output_extension="org.inkscape.output.svg.inkscape">
  <metadata
     id="metadata4359">
    <rdf:RDF>
      <cc:Work
         rdf:about="">
        <dc:format>image/svg+xml</dc:format>
        <dc:type
           rdf:resource="http://purl.org/dc/dcmitype/StillImage" />
      </cc:Work>
    </rdf:RDF>
  </metadata>
  <defs
     id="defs4357">
    <linearGradient
       id="linearGradient4896">
      <stop
         style="stop-color:#7e450d;stop-opacity:1;"
         offset="0"
         id="stop4898" />
      <stop
         style="stop-color:#a95c13;stop-opacity:1;"
         offset="1"
         id="stop4900" />
    </linearGradient>
    <linearGradient
       id="linearGradient4876">
      <stop
         style="stop-color:#56b142;stop-opacity:1;"
         offset="0"
         id="stop4878" />
      <stop
         style="stop-color:#21922a;stop-opacity:1;"
         offset="1"
         id="stop4880" />
    </linearGradient>
    <inkscape:perspective
       sodipodi:type="inkscape:persp3d"
       inkscape:vp_x="0 : 526.18109 : 1"
       inkscape:vp_y="0 : 1000 : 0"
       inkscape:vp_z="744.09448 : 526.18109 : 1"
       inkscape:persp3d-origin="372.04724 : 350.78739 : 1"
       id="perspective4361" />
    <radialGradient
       inkscape:collect="always"
       xlink:href="#linearGradient4876"
       id="radialGradient4882"
       cx="95.625107"
       cy="78.475685"
       fx="95.625107"
       fy="78.475685"
       r="91.4003"
       gradientTransform="matrix(-0.9125895,-0.0019286,-0.00117132,0.5542529,182.9835,35.16473)"
       gradientUnits="userSpaceOnUse" />
    <linearGradient
       inkscape:collect="always"
       xlink:href="#linearGradient4896"
       id="linearGradient4902"
       x1="93.854118"
       y1="214.76768"
       x2="93.854118"
       y2="140.5386"
       gradientUnits="userSpaceOnUse"
       spreadMethod="pad"
       gradientTransform="matrix(-1,0,0,1,191.25022,0)" />
    <radialGradient
       inkscape:collect="always"
       xlink:href="#linearGradient4876"
       id="radialGradient4908"
       gradientUnits="userSpaceOnUse"
       gradientTransform="matrix(0.352007,-0.1486741,4.6001182e-3,-0.2131488,376.33384,218.4383)"
       cx="95.625107"
       cy="78.475685"
       fx="95.625107"
       fy="78.475685"
       r="91.4003" />
    <linearGradient
       inkscape:collect="always"
       xlink:href="#linearGradient4896"
       id="linearGradient4910"
       gradientUnits="userSpaceOnUse"
       x1="93.854118"
       y1="214.76768"
       x2="94.237587"
       y2="94.403542"
       gradientTransform="matrix(0.352007,-0.1486741,7.8346586e-3,-0.3630255,376.08,230.19996)" />
    <radialGradient
       inkscape:collect="always"
       xlink:href="#linearGradient4876"
       id="radialGradient4941"
       gradientUnits="userSpaceOnUse"
       gradientTransform="matrix(0.2924518,-0.1955116,-3.8569974e-3,-0.2122918,320.22229,248.80241)"
       cx="95.625107"
       cy="78.475685"
       fx="95.625107"
       fy="78.475685"
       r="91.4003" />
    <linearGradient
       inkscape:collect="always"
       xlink:href="#linearGradient4896"
       id="linearGradient4943"
       gradientUnits="userSpaceOnUse"
       spreadMethod="pad"
       x1="93.854118"
       y1="214.76768"
       x2="93.854118"
       y2="140.5386"
       gradientTransform="matrix(0.3204476,-0.215047,-7.6361313e-3,-0.382569,317.84178,264.03309)" />
  </defs>
  <sodipodi:namedview
     inkscape:window-height="968"
     inkscape:window-width="1280"
     inkscape:pageshadow="2"
     inkscape:pageopacity="0.0"
     guidetolerance="10.0"
     gridtolerance="10.0"
     objecttolerance="10.0"
     borderopacity="1.0"
     bordercolor="#666666"
     pagecolor="#ffffff"
     id="base"
     showgrid="false"
     inkscape:zoom="4.0000001"
     inkscape:cx="266.38093"
     inkscape:cy="148.37599"
     inkscape:window-x="0"
     inkscape:window-y="1"
     inkscape:current-layer="svg4354"
     inkscape:window-maximized="0" />
  <path
     style="fill:none;fill-rule:evenodd;stroke:#000000;stroke-width:1px;stroke-linecap:butt;stroke-linejoin:miter;stroke-opacity:1;opacity:1"
     d="M 307.35294,204.43382 L 380.76536,224.10462"
     id="path4924" />
  <path
     style="opacity:1;fill:url(#radialGradient4941);fill-opacity:1;fill-rule:evenodd;stroke:none;stroke-width:1px;stroke-linecap:butt;stroke-linejoin:miter;stroke-opacity:1"
     d="M 343.23043,194.19408 C 343.06382,194.30588 341.88813,195.67437 341.37439,195.31363 C 340.86066,194.95288 340.59537,194.3498 339.90809,194.81102 C 339.22083,195.27224 338.9367,195.84086 338.63325,196.49805 C 338.32979,197.15523 337.98269,197.74092 337.44121,198.10431 C 336.89971,198.4677 336.49954,198.50947 336.20797,198.70513 C 335.9164,198.9008 335.55146,199.64965 335.38832,199.93549 C 335.22518,200.22135 334.84489,200.73154 334.49147,200.96871 C 334.13803,201.2059 333.27267,201.2165 332.59526,201.6711 C 331.91784,202.12571 331.33648,202.9078 331.17239,203.65931 C 331.00832,204.41084 331.3351,204.33407 330.8169,205.2876 C 330.29867,206.24114 328.40857,207.64309 327.62113,208.37311 C 326.8337,209.10311 325.99171,209.21461 325.04363,210.3548 C 324.09556,211.49497 322.6209,215.86094 321.87614,216.61271 C 321.13132,217.36453 320.7158,217.69376 320.16537,217.60961 C 319.61495,217.52542 319.53166,217.58133 319.00308,218.59117 C 318.47451,219.60102 318.48145,219.94907 318.52063,220.85508 C 318.55983,221.76106 318.55042,222.34689 319.16231,222.33942 C 319.77423,222.33191 319.96928,222.58029 319.98261,223.24839 C 319.99593,223.9165 318.67058,226.30251 318.70848,228.20129 C 318.74637,230.10008 320.07317,229.28095 320.13491,230.87868 C 320.19666,232.47638 318.87548,233.57679 318.94072,235.35034 C 319.00597,237.12384 323.22127,235.96981 323.28934,239.38058 C 323.35744,242.79136 322.37563,241.45474 322.43249,244.30292 C 322.46352,245.85817 322.81048,245.29643 323.91989,245.54964 C 325.02929,245.80289 325.82874,245.48021 326.71233,244.88725 C 327.59592,244.2943 328.32381,243.37819 329.03069,242.90383 C 329.73755,242.42946 330.57488,242.50894 331.18009,242.92239 C 331.78527,243.33582 331.50688,244.34223 332.43535,244.50308 C 333.36384,244.66392 334.98305,243.54166 335.95499,242.88941 C 336.92694,242.23716 338.37855,241.69063 339.87367,241.82753 C 341.36876,241.96448 342.40945,241.76496 343.41085,241.09294 C 344.41223,240.42093 344.34631,240.10882 344.76846,238.82778 C 345.1906,237.54676 346.28454,235.52982 347.3743,234.79851 C 348.46405,234.06719 349.62606,233.96442 350.46758,234.2549 C 351.30912,234.54538 351.4073,234.97835 351.96444,234.47975 C 352.52159,233.98113 352.59519,231.68684 353.40513,231.1433 C 354.21509,230.59975 355.61902,229.90702 355.92619,230.34229 C 356.23334,230.77757 355.94898,231.48509 356.24388,231.305 C 356.53875,231.12494 356.99912,230.01854 357.44665,229.70559 C 357.89416,229.39268 358.4311,229.48086 359.1085,229.02626 C 359.78594,228.57165 360.25436,228.11477 360.65336,227.16996 C 361.05238,226.22514 361.16036,225.65381 363.88477,223.82551 C 366.60915,221.99722 366.54115,222.32794 367.25012,222.70736 C 367.9591,223.08677 367.92965,223.10654 368.20946,222.91877 C 368.48925,222.731 368.57374,221.73002 368.97975,221.13685 C 369.3858,220.54366 371.42997,219.02931 371.53163,218.14152 C 371.6333,217.25371 370.1066,214.78618 370.09643,214.27631 C 370.08624,213.76646 370.14795,213.11927 370.85482,212.64491 C 371.5617,212.17053 372.23316,212.16535 372.72438,212.10295 C 373.21564,212.04054 375.16232,210.87668 375.3194,210.52184 C 375.47649,210.16697 375.30603,208.35715 375.22644,208.10768 C 375.14686,207.85819 373.41714,206.43553 373.05529,206.25077 C 372.69344,206.066 371.56894,205.80507 372.0707,205.5218 C 372.57244,205.23854 374.64273,204.63294 375.36234,203.12037 C 375.82258,202.15302 374.9382,202.64881 374.92327,202.42915 C 374.87825,201.76737 375.62332,201.40681 376.01629,201.00451 C 376.40926,200.60221 376.76106,199.72361 376.78881,198.99949 C 376.81658,198.27535 377.00568,193.47445 376.98583,192.4799 C 376.96598,191.48535 376.48142,190.23262 375.87377,189.69611 C 375.2661,189.15963 373.84708,188.34804 373.83372,186.18335 C 373.82035,184.01868 374.07246,183.19027 373.78177,182.83301 C 373.49109,182.47576 373.06368,182.74478 372.78457,182.96771 C 372.50547,183.19066 371.93851,183.94528 371.40869,184.31865 C 370.8789,184.692 369.51039,185.66384 369.3747,185.59455 C 369.23902,185.52526 369.18007,184.0682 369.17901,183.26716 C 369.17796,182.46611 369.26348,181.51786 368.81222,181.33964 C 368.36094,181.16145 367.36867,181.54228 364.99769,183.13341 C 362.62674,184.72451 361.55875,186.54586 360.82242,187.04 C 360.0861,187.53412 359.25339,188.05232 358.55424,187.91679 C 357.85504,187.78128 357.23568,186.35757 356.57072,185.82113 C 355.90573,185.28473 355.49513,183.74611 354.5163,184.40297 C 353.53746,185.05987 350.93118,186.65772 350.60242,187.10511 C 350.27367,187.5525 343.19128,194.20395 343.23043,194.19408 z"
     id="path4937"
     sodipodi:nodetypes="cssssssssssssssssssssssssssssssssssssssssssssssssssssssssssssssssssssssssc" />
  <path
     style="opacity:1;fill:url(#linearGradient4943);fill-opacity:1;fill-rule:evenodd;stroke:none;stroke-width:1px;stroke-linecap:butt;stroke-linejoin:miter;stroke-opacity:1"
     d="M 329.74837,217.54996 C 329.74837,217.54996 332.76162,212.24951 333.00951,211.95845 C 333.25741,211.66737 333.84331,211.11383 334.08663,210.59422 C 334.32997,210.07458 334.77454,207.67386 336.51226,206.5077 C 338.24997,205.34155 341.87632,201.42714 342.28739,200.87413 C 342.69846,200.32111 343.66089,197.78548 343.95246,197.58982 C 344.24403,197.39415 345.29651,196.72565 345.58535,196.92237 C 345.87421,197.11905 345.72177,199.52685 345.6251,200.49881 C 345.52842,201.47079 345.94593,201.24098 346.37536,201.60793 C 346.8048,201.97484 347.15836,202.77065 347.17077,203.39221 C 347.18318,204.01383 346.34027,208.3086 346.34027,208.3086 C 346.34027,208.3086 347.40138,205.42959 347.4921,204.6884 C 347.58285,203.94719 347.83323,201.68783 347.65619,201.27752 C 347.47917,200.86719 347.13503,200.54379 347.11171,199.37519 C 347.08837,198.20661 347.38315,197.64343 347.68737,197.02353 C 347.99157,196.40364 348.65104,194.02093 349.46352,193.48828 C 350.276,192.95565 351.82731,192.43112 352.44268,192.59767 C 353.05807,192.76424 354.3523,193.10515 355.2637,193.29982 C 356.17512,193.49446 357.10586,192.5423 357.78471,192.71666 C 358.46358,192.891 359.03034,192.73741 359.06012,194.22925 C 359.0899,195.72107 358.98625,195.81581 359.67056,196.26367 C 360.35487,196.71153 361.27719,196.39494 361.27719,196.39494 C 361.27719,196.39494 360.71932,195.93781 360.25171,195.77288 C 359.78411,195.60795 359.83713,192.97713 359.49051,192.52941 C 359.14388,192.08172 357.99243,190.43553 357.44252,190.37622 C 356.89259,190.31694 355.9708,190.65838 355.58498,190.36295 C 355.19918,190.06753 354.9557,189.50021 354.25454,189.26525 C 353.55339,189.03026 351.77121,188.56326 351.77121,188.56326 C 351.77121,188.56326 351.94643,185.72726 351.86714,181.75387 C 351.78783,177.78052 351.43365,174.98934 351.43365,174.98934 C 351.43365,174.98934 351.25969,171.39481 351.77883,168.8543 C 352.29796,166.31381 351.67359,163.58321 353.41507,160.95312 C 355.15653,158.32304 359.01596,154.8385 359.98426,153.82341 C 360.85249,152.91318 362.81115,150.59089 362.81115,150.59089 C 362.81115,150.59089 358.33053,154.50483 357.17021,155.58588 C 356.00989,156.66691 353.51667,158.64242 352.53886,160.40727 C 351.56102,162.17215 351.02029,163.10195 350.71807,163.29216 C 350.41583,163.48239 350.50432,162.10019 351.19356,160.68017 C 351.88281,159.26015 352.81846,157.49839 352.6112,157.68788 C 352.40393,157.87738 348.75442,164.30758 348.48666,164.63843 C 348.2189,164.96931 347.50635,165.74986 346.70453,166.28793 C 345.90271,166.82603 345.15297,166.80005 344.68485,166.61024 C 344.21675,166.42043 343.87601,165.46665 343.65163,165.32746 C 343.42724,165.18829 340.82002,165.42435 340.82002,165.42435 C 340.82002,165.42435 343.28453,167.29802 343.14073,167.4953 C 342.99692,167.69258 336.55264,170.50544 335.67147,170.76922 C 334.74955,171.04518 331.01132,173.09028 331.01132,173.09028 C 331.01132,173.09028 333.76487,172.52744 334.60638,172.39106 C 335.44787,172.2547 337.49084,170.98448 338.39827,170.98024 C 339.30572,170.976 340.62672,170.54303 340.92871,170.86951 C 341.2307,171.19597 341.13234,173.29686 341.37397,174.9342 C 341.61558,176.57154 341.81944,179.54417 342.09615,180.71909 C 342.37287,181.89401 342.32436,187.92339 342.22324,189.2007 C 342.12208,190.47803 342.38834,195.09912 342.10503,195.85937 C 341.82173,196.61964 340.47781,199.57045 340.04372,200.25373 C 339.60966,200.93699 338.68295,202.36065 338.27061,202.63737 C 337.85828,202.91408 336.97468,204.33862 336.72874,204.70524 C 336.4828,205.07186 334.74479,206.81772 334.50234,207.35838 C 334.25986,207.89906 332.02008,213.05567 331.65315,213.70506 C 331.28623,214.35444 329.72577,217.59377 329.74837,217.54996 z"
     id="path4939"
     sodipodi:nodetypes="cssssssssscsssssssssscssssscscssscssssssssscsscssssssssssssc" />
  <path
     style="fill:none;fill-rule:evenodd;stroke:#ff0000;stroke-width:1px;stroke-linecap:butt;stroke-linejoin:miter;stroke-opacity:1;opacity:1"
     d="M 97.150735,214.08456 L 344.48529,166.19853"
     id="path4886" />
  <path
     style="opacity:1;fill:url(#radialGradient4882);fill-opacity:1;fill-rule:evenodd;stroke:none;stroke-width:1px;stroke-linecap:butt;stroke-linejoin:miter;stroke-opacity:1"
     d="m 108.77609,136.19304 c 0.51993,0 4.22445,-1.49481 5.78424,0.32495 1.55979,1.81976 2.33969,3.8345 4.48441,3.8345 2.14472,0 3.0546,-0.97487 4.02947,-2.14472 0.97487,-1.16985 2.07972,-2.07973 3.7695,-2.07973 1.68978,0 2.92461,0.58493 3.83449,0.58493 0.90988,0 2.07973,-1.29983 2.59966,-1.75477 0.51993,-0.45494 1.72236,-1.11261 2.8253,-1.11261 1.10294,0 3.76838,1.47059 5.88235,1.47059 2.11397,0 3.95221,-1.01103 4.50368,-2.66544 0.55147,-1.65442 -0.45956,-2.02206 1.19485,-3.58456 1.65441,-1.5625 7.56093,-1.90695 10.0306,-2.42689 2.46967,-0.51993 5.06933,0.64992 8.05894,-0.64991 2.9896,-1.29983 7.79897,-10.00868 10.13866,-10.65859 2.33969,-0.64992 3.63952,-0.7799 5.3293,0.38994 1.68978,1.16985 1.94974,1.16985 3.63952,-0.51993 1.68978,-1.68977 1.68978,-2.59965 1.62479,-5.00434 -0.065,-2.40468 0,-3.89948 -1.88476,-4.93935 -1.88475,-1.03986 -2.47014,-2.01814 -2.47014,-3.76446 0,-1.746327 4.22795,-5.606621 4.22795,-10.569856 0,-4.963235 -4.13603,-5.147059 -4.22795,-9.375 -0.0919,-4.227941 4.04412,-4.779412 3.95221,-9.466912 -0.0919,-4.6875 -13.14338,-9.007353 -13.14338,-17.922794 0,-8.915441 2.94117,-3.768382 2.94117,-11.213235 0,-4.065299 -1.10294,-3.216912 -4.50367,-5.790442 -3.40074,-2.573529 -5.88235,-3.125 -8.63971,-3.125 -2.75735,0 -5.05514,1.102942 -7.26103,1.102942 -2.20588,0 -4.77941,-1.654412 -6.61764,-3.768383 -1.83824,-2.11397 -0.91912,-4.227941 -3.76839,-6.25 -2.84926,-2.022059 -7.90441,-1.930147 -10.9375,-1.930147 -3.03308,0 -7.53676,-1.102941 -12.13235,-4.044118 -4.59559,-2.941176 -7.8125,-4.227941 -10.9375,-4.227941 -3.125,0 -2.94118,0.919118 -4.31985,3.492647 -1.37868,2.57353 -4.87133,5.882353 -8.272061,5.882353 -3.400735,0 -6.985294,-1.746323 -9.558819,-3.952206 -2.57353,-2.205882 -2.84927,-3.492647 -4.59559,-3.170956 -1.74633,0.321692 -2.11397,6.112133 -4.64155,6.112133 -2.52757,0 -6.89338,-0.643383 -7.8125,-2.297794 -0.91911,-1.654412 0,-2.987133 -0.91911,-3.033089 -0.91912,-0.04595 -2.40479,2.011007 -3.8021,2.043502 -1.39732,0.0325 -3.04533,-1.124384 -5.1593,-1.124384 -2.11397,0 -3.58456,0.367647 -4.87132,2.113971 -1.28677,1.746323 -1.65442,3.033088 -10.15626,3.033088 -8.50183,0 -8.27205,-0.735294 -10.43198,-2.941177 -2.15993,-2.205882 -2.06802,-2.205882 -2.94118,-2.205882 -0.87316,0 -1.19485,2.435662 -2.48161,3.262868 -1.28677,0.827206 -7.67464,1.194853 -8.04228,3.308823 -0.36765,2.113971 4.18198,11.121324 4.18198,12.454044 0,1.332721 -0.22978,2.895221 -2.43566,2.895221 -2.20588,0 -4.2739,-1.148897 -5.79044,-1.838235 -1.51655,-0.689339 -7.58272,-1.056986 -8.08824,-0.413603 -0.50551,0.643382 -0.09191,5.606617 0.13787,6.387867 0.22978,0.78125 5.46875,7.444853 6.57169,8.547795 1.10294,1.102941 4.54963,3.722426 2.98713,3.584558 -1.5625,-0.137867 -7.97493,-2.159375 -10.28387,0.496432 -1.4766703,1.69851 1.27713,1.950536 1.30963,2.542947 0.09792,1.784875 -2.2185603,1.425192 -3.4533903,1.782645 -1.23484,0.357453 -2.37219,2.014735 -2.50217,3.834495 -0.12999,1.81976 -1.00737,13.875671 -1.00737,16.475328 0,2.599657 1.41512,6.669624 3.25335,9.105286 1.83824,2.435662 6.1580903,6.985294 6.0661803,12.591909 -0.09191,5.60662 -0.91912,7.30699 -0.04596,8.73162 0.87316,1.42463 2.20588,1.47059 3.07905,1.37868 0.87316,-0.0919 2.66544,-1.05699 4.31985,-1.10294 1.65441,-0.046 5.92831,-0.18383 6.34191,0.22977 0.4136,0.41361 0.50551,4.2739 0.45956,6.34192 -0.04596,2.06801 -0.36765,4.36581 1.01103,5.60661 1.37867,1.24081 4.45772,1.97611 11.85662,1.97611 7.39889,0 10.79963,-2.84927 13.09742,-2.84927 2.2978,0 4.89383,0.10475 7.03854,1.66455 2.14472,1.55979 3.96448,6.30417 5.97922,8.83883 2.01473,2.53467 3.18458,7.21405 6.23917,7.21405 3.0546,0 11.17853,0.38995 12.21839,-0.19497 1.03987,-0.58493 23.25814,-5.48202 23.13695,-5.52427 z"
     id="path4365"
     sodipodi:nodetypes="cssssssssssssssssssssssssssssssssssssssssssssssssssssssssssssssssssssssssc"
     inkscape:connector-curvature="0" />
  <path
     style="opacity:1;fill:url(#linearGradient4902);fill-opacity:1;fill-rule:evenodd;stroke:none;stroke-width:1px;stroke-linecap:butt;stroke-linejoin:miter;stroke-opacity:1"
     d="m 151.72816,99.286764 c 0,0 -9.60478,8.455886 -10.38603,8.777576 -0.78125,0.32169 -2.61948,0.73529 -3.40073,1.65441 -0.78125,0.91912 -2.2978,6.34191 -7.72059,6.34191 -5.4228,0 -16.83033,3.81953 -18.13015,4.53443 -1.29983,0.71491 -4.41942,5.58926 -5.3293,5.58926 -0.90988,0 -4.19195,-0.0975 -5.06933,-1.10485 -0.87739,-1.00737 -0.25997,-6.95408 0.0975,-9.29377 0.35746,-2.3397 -0.94237,-2.46968 -2.242201,-4.15946 -1.299828,-1.68977 -2.339691,-4.35442 -2.339691,-5.97921 0,-1.62478 2.859622,-11.243516 2.859622,-11.243516 0,0 -3.444545,5.589263 -3.769502,7.344036 -0.324958,1.75476 -1.234838,7.14905 -0.714906,8.51387 0.519931,1.36482 1.559794,2.79464 1.559794,5.84923 0,3.0546 -0.942376,3.99698 -1.917247,5.06933 -0.974872,1.07236 -3.152085,6.0767 -5.686749,6.04421 -2.53467,-0.0325 -7.34403,-1.36482 -9.22878,-2.85963 -1.88476,-1.4948 -5.84923,-4.61439 -8.64387,-6.69411 -2.79463,-2.07973 -5.71924,-1.23484 -7.79897,-2.85963 -2.07972,-1.62478 -3.83449,-2.2097 -3.83449,-6.10919 0,-3.89949 0.32496,-3.96448 -1.75477,-6.30417 -2.07973,-2.33969 -4.93935,-3.119588 -4.93935,-3.119588 0,0 1.68978,2.144718 3.11959,3.379558 1.42981,1.23483 1.10485,7.92895 2.14472,9.68372 1.03986,1.75477 4.48441,7.99395 6.17418,9.0988 1.68978,1.10485 4.5494,1.81976 5.71925,3.24957 1.16984,1.42981 1.88475,3.31456 4.02947,5.13432 2.14472,1.81976 7.604,6.1092 7.604,6.1092 0,0 -0.71395,7.01178 -0.71395,17.39781 0,10.38603 0.91912,18.19853 0.91912,18.19853 0,0 0.31476,9.5727 -1.44001,15.22696 -1.75477,5.65425 0,13.77818 -5.52427,17.54769 -5.52428,3.7695 -17.62319,6.07685 -20.66728,7.01907 -2.72964,0.84489 -8.90383,3.44455 -8.90383,3.44455 0,0 14.03815,-2.33969 17.67767,-3.11959 3.63952,-0.7799 11.4385,-1.5598 14.55809,-4.41942 3.11958,-2.85962 4.84186,-4.32193 5.78423,-4.28943 0.94238,0.0325 0.58493,3.44454 -1.62478,5.91422 -2.20971,2.46967 -5.19932,5.39429 -4.5494,5.2643 0.64991,-0.12998 12.28338,-10.39863 13.12827,-10.78858 0.844884,-0.38994 3.087089,-1.16984 5.589259,-1.16984 2.50217,0 4.809361,1.36482 6.239181,2.66465 1.42981,1.29983 2.42045,4.3498 3.10286,5.09721 0.68241,0.7474 8.72558,4.6515 8.72558,4.6515 0,0 -7.47402,-9.0988 -7.01908,-9.35876 0.45494,-0.25997 20.4723,3.63951 23.20194,4.4844 2.85593,0.88398 14.49309,2.07973 14.49309,2.07973 0,0 -8.51387,-3.31456 -11.11353,-4.41942 -2.59966,-1.10485 -8.96882,-1.36482 -11.76345,-2.92461 -2.79463,-1.5598 -6.88909,-2.72964 -7.79897,-4.09446 -0.90988,-1.36482 -0.47792,-6.61348 -1.12131,-11.25502 -0.64338,-4.64155 -1.0884,-12.66183 -1.8683,-16.17137 -0.7799,-3.50953 -0.25996,-18.97749 0.12998,-22.09708 0.38995,-3.11959 -0.14587,-15.49993 0.77325,-16.97052 0.91912,-1.47059 5.23897,-6.75552 6.61765,-7.76655 1.37867,-1.01103 4.31985,-3.07904 5.60661,-3.07904 1.28677,0 4.09524,-2.14494 4.87514,-2.66487 0.77989,-0.51994 6.23917,-2.01474 7.01907,-2.98961 0.7799,-0.97487 7.99395,-10.39863 9.16379,-11.43849 1.16985,-1.03987 6.17419,-6.69412 6.10193,-6.620266 z"
     id="path4884"
     sodipodi:nodetypes="cssssssssscsssssssssscssssscscssscssssssssscsscssssssssssssc"
     inkscape:connector-curvature="0" />
  <path
     style="fill:none;fill-rule:evenodd;stroke:#ff0000;stroke-width:1px;stroke-linecap:butt;stroke-linejoin:miter;stroke-opacity:1;opacity:1"
     d="M 340.78699,239.03454 L 107.23586,17.583672"
     id="path4912"
     sodipodi:nodetypes="cc" />
  <path
     style="fill:#b1b1b1;fill-rule:evenodd;stroke:#000000;stroke-width:1px;stroke-linecap:butt;stroke-linejoin:miter;stroke-opacity:1;fill-opacity:0.80232561;opacity:1"
     d="M 242.15808,154.53687 L 307.34448,116.43564 L 307.34448,204.88898 L 242.09559,242.34743 L 242.15808,154.53687 z"
     id="path4916" />
  <path
     style="fill:#ffffff;fill-rule:evenodd;stroke:none;stroke-width:1px;stroke-linecap:butt;stroke-linejoin:miter;stroke-opacity:1"
     d="M 277.57808,176.60146 L 276.04786,177.68422 L 276.01471,180.55684 L 277.58361,182.05944 L 279.5392,180.10385 L 279.31823,177.55163 L 277.57808,176.60146 z"
     id="path4935" />
  <path
     sodipodi:open="true"
     sodipodi:end="4.712389"
     sodipodi:start="1.5707963"
     transform="matrix(-1,0,0,1,555.42343,0.1148897)"
     d="M 277.83838,181.94701 A 1.8847517,2.8596227 0 1 1 277.83838,176.22776"
     sodipodi:ry="2.8596227"
     sodipodi:rx="1.8847517"
     sodipodi:cy="179.08739"
     sodipodi:cx="277.83838"
     id="path4928"
     style="opacity:1;fill:none;fill-opacity:1;fill-rule:evenodd;stroke:#000000;stroke-width:1;stroke-linecap:butt;stroke-linejoin:miter;stroke-miterlimit:4;stroke-dasharray:none;stroke-dashoffset:13.5;stroke-opacity:1"
     sodipodi:type="arc" />
  <path
     style="fill:none;fill-rule:evenodd;stroke:#000000;stroke-width:1px;stroke-linecap:butt;stroke-linejoin:miter;stroke-opacity:1;opacity:1"
     d="M 242.16452,242.46232 L 315.02066,261.98406 L 315.02066,173.64338 L 242.15303,154.52573"
     id="path4918" />
  <path
     style="fill:none;fill-rule:evenodd;stroke:#000000;stroke-width:1px;stroke-linecap:butt;stroke-linejoin:miter;stroke-opacity:1;opacity:1"
     d="M 315.01347,173.85557 L 380.9335,135.79663 L 380.9335,223.93147 L 315.12783,261.92439"
     id="path4920" />
  <path
     style="fill:none;fill-rule:evenodd;stroke:#000000;stroke-width:1px;stroke-linecap:butt;stroke-linejoin:miter;stroke-opacity:1;opacity:1"
     d="M 307.70194,116.43564 L 380.65851,135.98429"
     id="path4922" />
  <path
     style="fill:none;fill-rule:evenodd;stroke:#ff0000;stroke-width:1px;stroke-linecap:butt;stroke-linejoin:miter;stroke-opacity:1"
     d="M 276.10937,177.71483 L 306.39062,206.43359"
     id="path4930"
     sodipodi:nodetypes="cc" />
  <path
     style="fill:none;fill-rule:evenodd;stroke:#ff0000;stroke-width:1px;stroke-linecap:butt;stroke-linejoin:miter;stroke-opacity:1"
     d="M 275.92739,179.46551 L 308.38672,173.1875"
     id="path4933"
     sodipodi:nodetypes="cc" />
  <path
     sodipodi:type="arc"
     style="opacity:1;fill:none;fill-opacity:1;fill-rule:evenodd;stroke:#000000;stroke-width:1;stroke-linecap:butt;stroke-linejoin:miter;stroke-miterlimit:4;stroke-dasharray:none;stroke-dashoffset:13.50000000000000000;stroke-opacity:1"
     id="path4926"
     sodipodi:cx="277.83838"
     sodipodi:cy="179.08739"
     sodipodi:rx="1.8847517"
     sodipodi:ry="2.8596227"
     d="M 277.83838,181.94701 A 1.8847517,2.8596227 0 1 1 277.83838,176.22776"
     transform="translate(-0.1838235,0.1148897)"
     sodipodi:open="true"
     sodipodi:start="1.5707963"
     sodipodi:end="4.712389" />
</svg>
