<?xml version="1.0" encoding="utf-8"?>
<!-- Generator: Adobe Illustrator 23.0.2, SVG Export Plug-In . SVG Version: 6.00 Build 0)  -->
<svg version="1.1" id="图层_1" xmlns="http://www.w3.org/2000/svg" xmlns:xlink="http://www.w3.org/1999/xlink" x="0px" y="0px"
	 viewBox="0 0 377.4 377.4" style="enable-background:new 0 0 377.4 377.4;" xml:space="preserve">
<style type="text/css">
	.st0{fill:#DD2629;}
	.st1{fill:#FFF7F0;}
</style>
<title>SIPPED</title>
<path class="st0" d="M38.2,0h301.1c21.1,0,38.2,17.1,38.2,38.2v301.1c0,21.1-17.1,38.2-38.2,38.2H38.2C17.1,377.4,0,360.4,0,339.3
	V38.2C0,17.1,17.1,0,38.2,0z"/>
<polygon class="st1" points="307.1,247.1 225.4,329 103.9,329 103.9,275 244.7,275 244.7,219.1 159.1,219.1 77.2,137.2 159.1,55.2 
	280.5,55.2 280.5,109.3 139.8,109.3 139.8,165.1 225.1,165.1 "/>
<path class="st1" d="M93.6,65.4c-1.2-14.2-13.6-24.7-27.8-23.5C51.6,43.1,41,55.5,42.2,69.7c1,12.6,11,22.5,23.6,23.5
	c14.2,1.1,26.7-9.5,27.8-23.8C93.7,68.1,93.7,66.8,93.6,65.4z M66.5,77.9c-5.7-0.8-9.8-6-9-11.8s6-9.8,11.8-9c4.7,0.6,8.4,4.3,9,9
	c0.7,5.8-3.3,11-9.1,11.8C68.3,78,67.4,78,66.5,77.9z"/>
</svg>
