<?xml version="1.0" standalone="no"?><!DOCTYPE svg PUBLIC "-//W3C//DTD SVG 1.1//EN" "http://www.w3.org/Graphics/SVG/1.1/DTD/svg11.dtd"><svg t="1691465733135" class="icon" viewBox="0 0 1024 1024" version="1.1" xmlns="http://www.w3.org/2000/svg" p-id="12489" xmlns:xlink="http://www.w3.org/1999/xlink" width="18" height="18"><path d="M950.857143 512q0 143.428571-83.714286 258t-216.285714 158.571429q-15.428571 2.857143-22.571429-4t-7.142857-17.142857l0-120.571429q0-55.428571-29.714286-81.142857 32.571429-3.428571 58.571429-10.285714t53.714286-22.285714 46.285714-38 30.285714-60 11.714286-86q0-69.142857-45.142857-117.714286 21.142857-52-4.571429-116.571429-16-5.142857-46.285714 6.285714t-52.571429 25.142857l-21.714286 13.714286q-53.142857-14.857143-109.714286-14.857143t-109.714286 14.857143q-9.142857-6.285714-24.285714-15.428571t-47.714286-22-49.142857-7.714286q-25.142857 64.571429-4 116.571429-45.142857 48.571429-45.142857 117.714286 0 48.571429 11.714286 85.714286t30 60 46 38.285714 53.714286 22.285714 58.571429 10.285714q-22.857143 20.571429-28 58.857143-12 5.714286-25.714286 8.571429t-32.571429 2.857143-37.428571-12.285714-31.714286-35.714286q-10.857143-18.285714-27.714286-29.714286t-28.285714-13.714286l-11.428571-1.714286q-12 0-16.571429 2.571429t-2.857143 6.571429 5.142857 8 7.428571 6.857143l4 2.857143q12.571429 5.714286 24.857143 21.714286t18 29.142857l5.714286 13.142857q7.428571 21.714286 25.142857 35.142857t38.285714 17.142857 39.714286 4 31.714286-2l13.142857-2.285714q0 21.714286 2.857143 50.857143t2.857143 30.857143q0 10.285714-7.428571 17.142857t-22.857143 4q-132.571429-44-216.285714-158.571429t-83.714286-258q0-119.428571 58.857143-220.285714t159.714286-159.714286 220.285714-58.857143 220.285714 58.857143 159.714286 159.714286 58.857143 220.285714z" p-id="12490" fill="#8a8a8a"></path></svg>