<?xml version="1.0" standalone="no"?><!DOCTYPE svg PUBLIC "-//W3C//DTD SVG 1.1//EN" "http://www.w3.org/Graphics/SVG/1.1/DTD/svg11.dtd"><svg t="1641292966538" class="icon" viewBox="0 0 1027 1024" version="1.1" xmlns="http://www.w3.org/2000/svg" p-id="9030" xmlns:xlink="http://www.w3.org/1999/xlink" width="16.046875" height="16"><defs><style type="text/css"></style></defs><path d="M833.488372 0H78.245847C44.225914 0 17.009967 17.009967 6.803987 47.627907S0 108.863787 23.813953 132.677741l867.508306 867.508306c13.607973 13.607973 34.019934 23.813953 54.431894 23.813953 44.225914 0 78.245847-34.019934 78.245847-78.245847V187.109635C1020.598007 85.049834 935.548173 0 833.488372 0zM445.66113 350.405316c-3.401993 0-6.803987 0-6.803987-3.401994-6.803987-3.401993-10.20598-10.20598-6.803987-17.009967l34.019934-159.893687L374.219269 261.953488c-6.803987 6.803987-17.009967 6.803987-23.813953 0-6.803987-6.803987-6.803987-17.009967 0-23.813953l132.67774-132.677741c3.401993-3.401993 10.20598-3.401993 17.009967 0s10.20598 10.20598 10.20598 17.009967l-34.019933 159.893688 91.85382-91.853821c6.803987-6.803987 17.009967-6.803987 23.813954 0 6.803987 6.803987 6.803987 17.009967 0 23.813953l-132.677741 129.275748c-6.803987 6.803987-10.20598 6.803987-13.607973 6.803987z m142.88372 34.019933l-37.421926-37.421927-37.421927 37.421927 54.431893 54.431894c6.803987 6.803987 6.803987 17.009967 0 23.813953-3.401993 3.401993-6.803987 3.401993-13.607973 3.401994s-10.20598 0-13.607973-3.401994l-68.039868-68.039867c-6.803987-6.803987-6.803987-17.009967 0-23.813953L612.358804 238.139535c3.401993-3.401993 6.803987-3.401993 13.607973-3.401993 3.401993 0 10.20598 3.401993 13.607974 3.401993l71.44186 71.44186c6.803987 6.803987 6.803987 17.009967 0 23.813954s-17.009967 6.803987-23.813953 0L625.966777 272.159468 578.33887 323.189369l37.421927 37.421927c6.803987 6.803987 6.803987 17.009967 0 23.813953-3.401993 3.401993-6.803987 3.401993-13.607973 3.401994s-10.20598 0-13.607974-3.401994z m289.169436 122.471761L717.820598 612.358804c-3.401993 3.401993-6.803987 3.401993-10.20598 3.401993-3.401993 0-6.803987 0-10.20598-3.401993-6.803987-3.401993-6.803987-10.20598-6.803987-17.009967l27.215947-98.657807-88.451827 34.019933c-6.803987 3.401993-13.607973 0-20.41196-6.803986-3.401993-6.803987-3.401993-13.607973 0-20.41196l105.461794-156.491695c6.803987-6.803987 17.009967-10.20598 23.813953-3.401993 6.803987 6.803987 10.20598 17.009967 3.401993 23.813953l-74.843853 112.265781 71.44186-27.215947c6.803987-3.401993 13.607973 0 17.009967 3.401994 3.401993 3.401993 6.803987 10.20598 3.401993 17.009966l-23.813953 88.451828 119.069767-81.647841c6.803987-6.803987 17.009967-3.401993 23.813954 3.401993 10.20598 6.803987 6.803987 20.41196 0 23.813954z" fill="#b0b6b9" p-id="9031"></path></svg>