<?xml version="1.0" standalone="no"?><!DOCTYPE svg PUBLIC "-//W3C//DTD SVG 1.1//EN" "http://www.w3.org/Graphics/SVG/1.1/DTD/svg11.dtd"><svg t="1691466197207" class="icon" viewBox="0 0 1024 1024" version="1.1" xmlns="http://www.w3.org/2000/svg" p-id="17714" xmlns:xlink="http://www.w3.org/1999/xlink" width="18" height="18"><path d="M512.926476 85.333333a194.998857 194.998857 0 0 1 194.998857 194.998857V365.714286H755.809524v-121.904762h29.598476a73.142857 73.142857 0 0 1 72.94781 67.730286l37.91238 512A73.142857 73.142857 0 0 1 823.344762 902.095238H200.655238a73.142857 73.142857 0 0 1-72.923428-78.555428l37.91238-512A73.142857 73.142857 0 0 1 238.592 243.809524h29.574095L268.190476 365.714286h49.737143v-85.382096a194.998857 194.998857 0 0 1 188.928-194.901333l6.070857-0.097524z m134.095238 426.666667c-48.90819 137.728-224.304762 137.728-259.267047 3.047619L316.952381 533.430857c53.686857 206.677333 326.656 206.677333 398.994286 3.047619L647.021714 512z m-134.095238-353.52381a121.904762 121.904762 0 0 0-116.297143 85.333334h232.594286a121.904762 121.904762 0 0 0-116.297143-85.333334z" p-id="17715" fill="#8a8a8a"></path></svg>