<?xml version="1.0" encoding="utf-8"?>
<!-- Generator: Adobe Illustrator 22.0.0, SVG Export Plug-In . SVG Version: 6.00 Build 0)  -->
<svg version="1.1"
	 id="SvgjsSvg1006" inkscape:version="1.1 (c68e22c387, 2021-05-23)" sodipodi:docname="M2Dock瀵洝鍓兼穱鈩冧紖mod.svg" xmlns:inkscape="http://www.inkscape.org/namespaces/inkscape" xmlns:sodipodi="http://sodipodi.sourceforge.net/DTD/sodipodi-0.dtd" xmlns:svg="http://www.w3.org/2000/svg"
	 xmlns="http://www.w3.org/2000/svg" xmlns:xlink="http://www.w3.org/1999/xlink" x="0px" y="0px" viewBox="0 0 1307 756"
	 style="enable-background:new 0 0 1307 756;" xml:space="preserve">
<style type="text/css">
	.st0{fill:#FFFFFF;stroke:#FF6C00;stroke-width:4.7267;stroke-opacity:0;}
	.st1{fill:none;}
	.st2{fill:#FFFFFF;stroke:#323232;stroke-width:2;stroke-dasharray:0,0;}
	.st3{fill:#323232;stroke:#323232;stroke-width:2;stroke-dasharray:0,0;}
	.st4{fill:#FFFFFF;}
	.st5{fill:#323232;}
	.st6{font-family:'ArialMT';}
	.st7{font-size:15px;}
	.st8{fill:#66FFFF;}
	.st9{fill:#FFCC99;}
	.st10{fill:#CCE5FF;}
	.st11{fill:#E6FFCC;}
	.st12{fill:url(#SvgjsPath1261_1_);}
	.st13{fill:url(#SvgjsPath1270_1_);}
	.st14{fill:#171717;}
	.st15{fill:#FF6666;}
	.st16{fill:#FFFFCC;}
	.st17{fill:#FFE6CC;}
	.st18{fill:#CCFFE6;}
	.st19{fill:#CCCCFF;}
	.st20{fill:#FFCCE6;}
	.st21{fill:url(#SvgjsPath1651_1_);}
	.st22{fill:#FF9800;}
</style>
<sodipodi:namedview  bordercolor="#666666" borderopacity="1.0" id="namedview813" inkscape:current-layer="SvgjsSvg1006" inkscape:cx="828.07702" inkscape:cy="468.44835" inkscape:pagecheckerboard="0" inkscape:pageopacity="0.0" inkscape:pageshadow="2" inkscape:window-height="1011" inkscape:window-maximized="1" inkscape:window-width="1920" inkscape:window-x="-8" inkscape:window-y="-8" inkscape:zoom="0.85921959" pagecolor="#ffffff" showgrid="false">
	</sodipodi:namedview>
<path id="rect1649" class="st0" d="M1256.1,855.6h1214.4c23.2,0,42.1,12.9,42.1,28.8v689.3c0,15.9-18.8,28.8-42.1,28.8H1256.1
	c-23.2,0-42.1-12.9-42.1-28.8V884.4C1214,868.5,1232.8,855.6,1256.1,855.6z"/>
<image style="overflow:visible;enable-background:new    ;" width="3007" height="2820" id="image903" xlink:href="A2C742FF.jpg"  transform="matrix(0.2596 0 0 0.2432 183.3238 35.4197)">
</image>
<g id="SvgjsG1012" transform="translate(16)">
	<path class="st1" d="M0,0"/>
	<circle id="SvgjsCircle1015" class="st2" cx="781.2" cy="350.3" r="4"/>
	<path id="SvgjsPath1017" class="st3" d="M839.8,346.3l14,4l-14,5V346.3"/>
	<path id="SvgjsPath1013" marker-end="url(#SvgjsMarker1016)" marker-start="url(#SvgjsMarker1014)" class="st3" d="M855.8,350.3"/>
	<rect id="SvgjsRect1018" x="804.5" y="340.8" class="st4" width="23" height="19"/>
	<text transform="matrix(1 0 0 1 799.3459 356.8831)" class="st5 st6 st7">GND</text>
</g>
<g id="SvgjsG1022" transform="translate(16)">
	<path class="st5" d="M0,0"/>
	<circle id="SvgjsCircle1025" class="st2" cx="781.2" cy="370.3" r="4"/>
	<path id="SvgjsPath1027" class="st3" d="M839.8,366.3l14,4l-14,5V366.3"/>
	<path id="SvgjsPath1023" marker-end="url(#SvgjsMarker1026)" marker-start="url(#SvgjsMarker1024)" class="st3" d="M855.8,370.3"/>
	<rect id="SvgjsRect1028" x="808.5" y="360.8" class="st4" width="15" height="19"/>
	<text transform="matrix(1 0 0 1 806.8386 376.8831)" class="st5 st6 st7">5V</text>
</g>
<g id="SvgjsG1032" transform="translate(16)">
	<path class="st5" d="M0,0"/>
	<circle id="SvgjsCircle1035" class="st2" cx="781.2" cy="388.9" r="4"/>
	<path id="SvgjsPath1037" class="st3" d="M839.8,384.9l14,4l-14,5V384.9"/>
	<path id="SvgjsPath1033" marker-end="url(#SvgjsMarker1036)" marker-start="url(#SvgjsMarker1034)" class="st3" d="M855.8,388.9"/>
	<rect id="SvgjsRect1038" x="804.5" y="379.4" class="st4" width="23" height="19"/>
	<text transform="matrix(1 0 0 1 801.4223 395.4796)" class="st5 st6 st7">PH6</text>
</g>
<g id="SvgjsG1042" transform="translate(16)">
	<path class="st5" d="M0,0"/>
	<circle id="SvgjsCircle1045" class="st2" cx="781.2" cy="409.6" r="4"/>
	<path id="SvgjsPath1047" class="st3" d="M839.8,405.6l14,4l-14,5V405.6"/>
	<path id="SvgjsPath1043" marker-end="url(#SvgjsMarker1046)" marker-start="url(#SvgjsMarker1044)" class="st3" d="M855.8,409.6"/>
	<rect id="SvgjsRect1048" x="804.5" y="400.1" class="st4" width="23" height="19"/>
	<text transform="matrix(1 0 0 1 801.4223 416.1814)" class="st5 st6 st7">PH7</text>
</g>
<g id="SvgjsG1052" transform="translate(16)">
	<path class="st5" d="M0,0"/>
	<circle id="SvgjsCircle1055" class="st2" cx="781.2" cy="431.3" r="4"/>
	<path id="SvgjsPath1057" class="st3" d="M839.8,427.3l14,4l-14,5V427.3"/>
	<path id="SvgjsPath1053" marker-end="url(#SvgjsMarker1056)" marker-start="url(#SvgjsMarker1054)" class="st3" d="M855.8,431.3"/>
	<rect id="SvgjsRect1058" x="804.5" y="421.8" class="st4" width="23" height="19"/>
	<text transform="matrix(1 0 0 1 801.4223 437.9358)" class="st5 st6 st7">PH8</text>
</g>
<g id="SvgjsG1062" transform="translate(16)">
	<path class="st5" d="M0,0"/>
	<circle id="SvgjsCircle1065" class="st2" cx="781.2" cy="450.3" r="4"/>
	<path id="SvgjsPath1067" class="st3" d="M839.8,446.3l14,4l-14,5V446.3"/>
	<path id="SvgjsPath1063" marker-end="url(#SvgjsMarker1066)" marker-start="url(#SvgjsMarker1064)" class="st3" d="M855.8,450.3"/>
	<rect id="SvgjsRect1068" x="804.5" y="440.8" class="st4" width="23" height="19"/>
	<text transform="matrix(1 0 0 1 800.1772 456.8831)" class="st5 st6 st7">ADC</text>
</g>
<g id="SvgjsG1072" transform="translate(16)">
	<path class="st5" d="M0,0"/>
	<circle id="SvgjsCircle1075" class="st2" cx="781.2" cy="469.6" r="4"/>
	<path id="SvgjsPath1077" class="st3" d="M839.8,465.6l14,4l-14,5V465.6"/>
	<path id="SvgjsPath1073" marker-end="url(#SvgjsMarker1076)" marker-start="url(#SvgjsMarker1074)" class="st3" d="M855.8,469.6"/>
	<rect id="SvgjsRect1078" x="804.5" y="460.1" class="st4" width="23" height="19"/>
	<text transform="matrix(1 0 0 1 801.4223 476.1814)" class="st5 st6 st7">PH0</text>
</g>
<g id="SvgjsG1082" transform="translate(16)">
	<path class="st5" d="M0,0"/>
	<circle id="SvgjsCircle1085" class="st2" cx="781.2" cy="490.3" r="4"/>
	<path id="SvgjsPath1087" class="st3" d="M839.8,486.3l14,4l-14,5V486.3"/>
	<path id="SvgjsPath1083" marker-end="url(#SvgjsMarker1086)" marker-start="url(#SvgjsMarker1084)" class="st3" d="M855.8,490.3"/>
	<rect id="SvgjsRect1088" x="804.5" y="480.8" class="st4" width="23" height="19"/>
	<text transform="matrix(1 0 0 1 801.4223 496.8831)" class="st5 st6 st7">PH1</text>
</g>
<g id="SvgjsG1092" transform="translate(16)">
	<path class="st5" d="M0,0"/>
	<circle id="SvgjsCircle1095" class="st2" cx="781.2" cy="509.2" r="4"/>
	<path id="SvgjsPath1097" class="st3" d="M839.8,505.2l14,4l-14,5V505.2"/>
	<path id="SvgjsPath1093" marker-end="url(#SvgjsMarker1096)" marker-start="url(#SvgjsMarker1094)" class="st3" d="M855.8,509.2"/>
	<rect id="SvgjsRect1098" x="804.5" y="499.7" class="st4" width="23" height="19"/>
	<text transform="matrix(1 0 0 1 801.4223 515.8306)" class="st5 st6 st7">PH2</text>
</g>
<g id="SvgjsG1102" transform="translate(16)">
	<path class="st5" d="M0,0"/>
	<circle id="SvgjsCircle1105" class="st2" cx="781.2" cy="529.6" r="4"/>
	<path id="SvgjsPath1107" class="st3" d="M839.8,525.6l14,4l-14,5V525.6"/>
	<path id="SvgjsPath1103" marker-end="url(#SvgjsMarker1106)" marker-start="url(#SvgjsMarker1104)" class="st3" d="M855.8,529.6"/>
	<rect id="SvgjsRect1108" x="804.5" y="520.1" class="st4" width="23" height="19"/>
	<text transform="matrix(1 0 0 1 801.4223 536.1814)" class="st5 st6 st7">PH3</text>
</g>
<g id="SvgjsG1112">
	<path class="st5" d="M0,0"/>
	<path id="SvgjsPath1115" class="st3" d="M493.3,345.1l-13,4.5l13,4.5"/>
	<circle id="SvgjsCircle1117" class="st2" cx="552.9" cy="349.6" r="4"/>
	<path id="SvgjsPath1113" marker-end="url(#SvgjsMarker1116)" marker-start="url(#SvgjsMarker1114)" class="st2" d="M557.9,349.6"/>
	<rect id="SvgjsRect1118" x="506.6" y="340.1" class="st4" width="23" height="19"/>
	<text transform="matrix(1 0 0 1 504.3625 356.1814)" class="st5 st6 st7">PF6</text>
</g>
<g id="SvgjsG1122">
	<path class="st5" d="M0,0"/>
	<path id="SvgjsPath1125" class="st3" d="M493.3,365.1l-13,4.5l13,4.5"/>
	<circle id="SvgjsCircle1127" class="st2" cx="552.9" cy="369.6" r="4"/>
	<path id="SvgjsPath1123" marker-end="url(#SvgjsMarker1126)" marker-start="url(#SvgjsMarker1124)" class="st2" d="M557.9,369.6"/>
	<rect id="SvgjsRect1128" x="506.6" y="360.1" class="st4" width="23" height="19"/>
	<text transform="matrix(1 0 0 1 503.1174 376.1814)" class="st5 st6 st7">RST</text>
</g>
<g id="SvgjsG1132">
	<path class="st5" d="M0,0"/>
	<path id="SvgjsPath1135" class="st3" d="M493.3,383.3l-13,4.5l13,4.5"/>
	<circle id="SvgjsCircle1137" class="st2" cx="552.9" cy="387.8" r="4"/>
	<path id="SvgjsPath1133" marker-end="url(#SvgjsMarker1136)" marker-start="url(#SvgjsMarker1134)" class="st2" d="M557.9,387.8"/>
	<rect id="SvgjsRect1138" x="506.6" y="378.3" class="st4" width="23" height="19"/>
	<text transform="matrix(1 0 0 1 503.11 394.3933)" class="st5 st6 st7">PG7</text>
</g>
<g id="SvgjsG1142">
	<path class="st5" d="M0,0"/>
	<path id="SvgjsPath1145" class="st3" d="M493.3,404.4l-13,4.5l13,4.5"/>
	<circle id="SvgjsCircle1147" class="st2" cx="552.9" cy="408.9" r="4"/>
	<path id="SvgjsPath1143" marker-end="url(#SvgjsMarker1146)" marker-start="url(#SvgjsMarker1144)" class="st2" d="M557.9,408.9"/>
	<rect id="SvgjsRect1148" x="506.6" y="399.4" class="st4" width="23" height="19"/>
	<text transform="matrix(1 0 0 1 503.11 415.4796)" class="st5 st6 st7">PG6</text>
</g>
<g id="SvgjsG1152">
	<path class="st5" d="M0,0"/>
	<path id="SvgjsPath1155" class="st3" d="M493.3,426.1l-13,4.5l13,4.5"/>
	<circle id="SvgjsCircle1157" class="st2" cx="552.9" cy="430.6" r="4"/>
	<path id="SvgjsPath1153" marker-end="url(#SvgjsMarker1156)" marker-start="url(#SvgjsMarker1154)" class="st2" d="M557.9,430.6"/>
	<rect id="SvgjsRect1158" x="503.1" y="421.1" class="st4" width="30" height="19"/>
	<text transform="matrix(1 0 0 1 499.3564 437.234)" class="st5 st6 st7">PH12</text>
</g>
<g id="SvgjsG1162">
	<path class="st5" d="M0,0"/>
	<path id="SvgjsPath1165" class="st3" d="M493.3,444.4l-13,4.5l13,4.5"/>
	<circle id="SvgjsCircle1167" class="st2" cx="552.9" cy="448.9" r="4"/>
	<path id="SvgjsPath1163" marker-end="url(#SvgjsMarker1166)" marker-start="url(#SvgjsMarker1164)" class="st2" d="M557.9,448.9"/>
	<rect id="SvgjsRect1168" x="503.1" y="439.4" class="st4" width="30" height="19"/>
	<text transform="matrix(1 0 0 1 499.913 455.5147)" class="st5 st6 st7">PH11</text>
</g>
<g id="SvgjsG1172">
	<path class="st5" d="M0,0"/>
	<path id="SvgjsPath1175" class="st3" d="M493.3,464.4l-13,4.5l13,4.5"/>
	<circle id="SvgjsCircle1177" class="st2" cx="552.9" cy="468.9" r="4"/>
	<path id="SvgjsPath1173" marker-end="url(#SvgjsMarker1176)" marker-start="url(#SvgjsMarker1174)" class="st2" d="M557.9,468.9"/>
	<rect id="SvgjsRect1178" x="503.1" y="459.4" class="st4" width="30" height="19"/>
	<text transform="matrix(1 0 0 1 499.3564 475.4796)" class="st5 st6 st7">PH14</text>
</g>
<g id="SvgjsG1182">
	<path class="st5" d="M0,0"/>
	<path id="SvgjsPath1185" class="st3" d="M493.3,485.1l-13,4.5l13,4.5"/>
	<circle id="SvgjsCircle1187" class="st2" cx="552.9" cy="489.6" r="4"/>
	<path id="SvgjsPath1183" marker-end="url(#SvgjsMarker1186)" marker-start="url(#SvgjsMarker1184)" class="st2" d="M557.9,489.6"/>
	<rect id="SvgjsRect1188" x="503.1" y="480.1" class="st4" width="30" height="19"/>
	<text transform="matrix(1 0 0 1 499.3564 496.1814)" class="st5 st6 st7">PH13</text>
</g>
<g id="SvgjsG1192">
	<path class="st5" d="M0,0"/>
	<path id="SvgjsPath1195" class="st3" d="M493.3,504l-13,4.5l13,4.5"/>
	<circle id="SvgjsCircle1197" class="st2" cx="552.9" cy="508.5" r="4"/>
	<path id="SvgjsPath1193" marker-end="url(#SvgjsMarker1196)" marker-start="url(#SvgjsMarker1194)" class="st2" d="M557.9,508.5"/>
	<rect id="SvgjsRect1198" x="503.1" y="499" class="st4" width="30" height="19"/>
	<text transform="matrix(1 0 0 1 499.3564 515.1288)" class="st5 st6 st7">PH10</text>
</g>
<g id="SvgjsG1202">
	<path class="st5" d="M0,0"/>
	<path id="SvgjsPath1205" class="st3" d="M493.3,524.4l-13,4.5l13,4.5"/>
	<circle id="SvgjsCircle1207" class="st2" cx="552.9" cy="528.9" r="4"/>
	<path id="SvgjsPath1203" marker-end="url(#SvgjsMarker1206)" marker-start="url(#SvgjsMarker1204)" class="st2" d="M557.9,528.9"/>
	<rect id="SvgjsRect1208" x="506.6" y="519.4" class="st4" width="23" height="19"/>
	<text transform="matrix(1 0 0 1 503.5275 535.4797)" class="st5 st6 st7">PH9</text>
</g>
<g id="SvgjsG1212" transform="translate(388,340.56666564941406)">
	<path id="SvgjsPath1213" class="st8" d="M0,4c0-2.7,1.3-4,4-4h82c2.7,0,4,1.3,4,4v13c0,2.7-1.3,4-4,4H4c-2.7,0-4-1.3-4-4V4z"/>
	<g id="SvgjsG1214">
		<text transform="matrix(1 0 0 1 12.9126 17.125)" class="st5 st6 st7">SD0-DET</text>
	</g>
</g>
<g id="SvgjsG1218" transform="translate(388,359.7433270291455)">
	<path id="SvgjsPath1219" class="st9" d="M0,4c0-2.7,1.3-4,4-4h82c2.7,0,4,1.3,4,4v13c0,2.7-1.3,4-4,4H4c-2.7,0-4-1.3-4-4V4z"/>
	<g id="SvgjsG1220">
		<text transform="matrix(1 0 0 1 19.9951 17.125)" class="st5 st6 st7">RESET</text>
	</g>
</g>
<g id="SvgjsG1224" transform="translate(388,379.56666564941406)">
	<path id="SvgjsPath1225" class="st10" d="M0,4c0-2.7,1.3-4,4-4h82c2.7,0,4,1.3,4,4v13c0,2.7-1.3,4-4,4H4c-2.7,0-4-1.3-4-4V4z"/>
	<g id="SvgjsG1226">
		<text transform="matrix(1 0 0 1 6.7932 17.125)" class="st5 st6 st7">UART1_TX</text>
	</g>
</g>
<g id="SvgjsG1230" transform="translate(388,399.56666564941406)">
	<path id="SvgjsPath1231" class="st10" d="M0,4c0-2.7,1.3-4,4-4h82c2.7,0,4,1.3,4,4v13c0,2.7-1.3,4-4,4H4c-2.7,0-4-1.3-4-4V4z"/>
	<g id="SvgjsG1232">
		<text transform="matrix(1 0 0 1 5.9583 17.125)" class="st5 st6 st7">UART1_RX</text>
	</g>
</g>
<g id="SvgjsG1236" transform="translate(388,419.56666564941406)">
	<path id="SvgjsPath1237" class="st11" d="M0,4c0-2.7,1.3-4,4-4h82c2.7,0,4,1.3,4,4v13c0,2.7-1.3,4-4,4H4c-2.7,0-4-1.3-4-4V4z"/>
	<g id="SvgjsG1238">
		<text transform="matrix(1 0 0 1 7.4927 17.125)" class="st5 st6 st7">TWI2_SDA</text>
	</g>
</g>
<g id="SvgjsG1242" transform="translate(388,439.56666564941406)">
	<path id="SvgjsPath1243" class="st11" d="M0,4c0-2.7,1.3-4,4-4h82c2.7,0,4,1.3,4,4v13c0,2.7-1.3,4-4,4H4c-2.7,0-4-1.3-4-4V4z"/>
	<g id="SvgjsG1244">
		<text transform="matrix(1 0 0 1 7.4927 17.125)" class="st5 st6 st7">TWI2_SCK</text>
	</g>
</g>
<g id="SvgjsG1248" transform="translate(388,459.56666564941406)">
	<path id="SvgjsPath1249" class="st11" d="M0,4c0-2.7,1.3-4,4-4h82c2.7,0,4,1.3,4,4v13c0,2.7-1.3,4-4,4H4c-2.7,0-4-1.3-4-4V4z"/>
	<g id="SvgjsG1250">
		<text transform="matrix(1 0 0 1 7.4927 17.125)" class="st5 st6 st7">TWI3_SDA</text>
	</g>
</g>
<g id="SvgjsG1254" transform="translate(388,479.56666564941406)">
	<path id="SvgjsPath1255" class="st11" d="M0,4c0-2.7,1.3-4,4-4h82c2.7,0,4,1.3,4,4v13c0,2.7-1.3,4-4,4H4c-2.7,0-4-1.3-4-4V4z"/>
	<g id="SvgjsG1256">
		<text transform="matrix(1 0 0 1 7.4927 17.125)" class="st5 st6 st7">TWI3_SDA</text>
	</g>
</g>
<g id="SvgjsG1260" transform="translate(388,499.56666564941406)">
	
		<linearGradient id="SvgjsPath1261_1_" gradientUnits="userSpaceOnUse" x1="-86.7334" y1="1.6191" x2="-87.7334" y2="2.6191" gradientTransform="matrix(90 0 0 21 7896 -33.9998)">
		<stop  offset="0" style="stop-color:#D8EBFF"/>
		<stop  offset="1" style="stop-color:#9CAFC3"/>
	</linearGradient>
	<path id="SvgjsPath1261" class="st12" d="M0,4c0-2.7,1.3-4,4-4h82c2.7,0,4,1.3,4,4v13c0,2.7-1.3,4-4,4H4c-2.7,0-4-1.3-4-4V4z"/>
	<g id="SvgjsG1265">
		<text transform="matrix(1 0 0 1 14.5752 17.125)" class="st6 st7">CPU_RX</text>
	</g>
</g>
<g id="SvgjsG1269" transform="translate(388,519.5666656494141)">
	
		<linearGradient id="SvgjsPath1270_1_" gradientUnits="userSpaceOnUse" x1="-86.7334" y1="1.6191" x2="-87.7334" y2="2.6191" gradientTransform="matrix(90 0 0 21 7896 -33.9998)">
		<stop  offset="0" style="stop-color:#D8EBFF"/>
		<stop  offset="1" style="stop-color:#9CAFC3"/>
	</linearGradient>
	<path id="SvgjsPath1270" class="st13" d="M0,4c0-2.7,1.3-4,4-4h82c2.7,0,4,1.3,4,4v13c0,2.7-1.3,4-4,4H4c-2.7,0-4-1.3-4-4V4z"/>
	<g id="SvgjsG1274">
		<text transform="matrix(1 0 0 1 15.4102 17.125)" class="st6 st7">CPU_TX</text>
	</g>
</g>
<g id="SvgjsG1278" transform="translate(875,340.56667)">
	<path id="SvgjsPath1279" class="st14" d="M0,4c0-2.7,1.3-4,4-4h82c2.7,0,4,1.3,4,4v13c0,2.7-1.3,4-4,4H4c-2.7,0-4-1.3-4-4V4z"/>
	<g id="SvgjsG1280">
		<text transform="matrix(1 0 0 1 28.3337 17.125)" class="st4 st6 st7">GND</text>
	</g>
</g>
<g id="SvgjsG1284" transform="translate(875,360.27739)">
	<path id="SvgjsPath1285" class="st15" d="M0,4c0-2.7,1.3-4,4-4h82c2.7,0,4,1.3,4,4v13c0,2.7-1.3,4-4,4H4c-2.7,0-4-1.3-4-4V4z"/>
	<g id="SvgjsG1286">
		<text transform="matrix(1 0 0 1 35.8264 17.125)" class="st4 st6 st7">5V</text>
	</g>
</g>
<g id="SvgjsG1290" transform="translate(875,379.56667)">
	<path id="SvgjsPath1291" class="st10" d="M0,4c0-2.7,1.3-4,4-4h82c2.7,0,4,1.3,4,4v13c0,2.7-1.3,4-4,4H4c-2.7,0-4-1.3-4-4V4z"/>
	<g id="SvgjsG1292">
		<text transform="matrix(1 0 0 1 5.9583 17.125)" class="st5 st6 st7">UART2_RX</text>
	</g>
</g>
<g id="SvgjsG1296" transform="translate(875,399.56667)">
	<path id="SvgjsPath1297" class="st10" d="M0,4c0-2.7,1.3-4,4-4h82c2.7,0,4,1.3,4,4v13c0,2.7-1.3,4-4,4H4c-2.7,0-4-1.3-4-4V4z"/>
	<g id="SvgjsG1298">
		<text transform="matrix(1 0 0 1 1.377 17.125)" class="st5 st6 st7">UART2_CTS</text>
	</g>
</g>
<g id="SvgjsG1302" transform="translate(875,419.56667)">
	<path id="SvgjsPath1303" class="st10" d="M0,4c0-2.7,1.3-4,4-4h82c2.7,0,4,1.3,4,4v13c0,2.7-1.3,4-4,4H4c-2.7,0-4-1.3-4-4V4z"/>
	<g id="SvgjsG1304">
		<text transform="matrix(1 0 0 1 1.5125 17.125)" class="st5 st6 st7">UART2_RTS</text>
	</g>
</g>
<g id="SvgjsG1308" transform="translate(875,439.56667)">
	<path id="SvgjsPath1309" class="st10" d="M0,4c0-2.7,1.3-4,4-4h82c2.7,0,4,1.3,4,4v13c0,2.7-1.3,4-4,4H4c-2.7,0-4-1.3-4-4V4z"/>
	<g id="SvgjsG1310">
		<text transform="matrix(1 0 0 1 14.7144 17.125)" class="st5 st6 st7">GPADC0</text>
	</g>
</g>
<g id="SvgjsG1314" transform="translate(875,459.56667)">
	<path id="SvgjsPath1315" class="st16" d="M0,4c0-2.7,1.3-4,4-4h82c2.7,0,4,1.3,4,4v13c0,2.7-1.3,4-4,4H4c-2.7,0-4-1.3-4-4V4z"/>
	<g id="SvgjsG1316">
		<text transform="matrix(1 0 0 1 9.9792 17.125)" class="st5 st6 st7">SPI1_CLK</text>
	</g>
</g>
<g id="SvgjsG1320" transform="translate(875,479.56667)">
	<path id="SvgjsPath1321" class="st16" d="M0,4c0-2.7,1.3-4,4-4h82c2.7,0,4,1.3,4,4v13c0,2.7-1.3,4-4,4H4c-2.7,0-4-1.3-4-4V4z"/>
	<g id="SvgjsG1322">
		<text transform="matrix(1 0 0 1 5.4016 17.125)" class="st5 st6 st7">SPI1_MOSI</text>
	</g>
</g>
<g id="SvgjsG1326" transform="translate(875,499.56667)">
	<path id="SvgjsPath1327" class="st16" d="M0,4c0-2.7,1.3-4,4-4h82c2.7,0,4,1.3,4,4v13c0,2.7-1.3,4-4,4H4c-2.7,0-4-1.3-4-4V4z"/>
	<g id="SvgjsG1328">
		<text transform="matrix(1 0 0 1 5.4016 17.125)" class="st5 st6 st7">SPI1_MISO</text>
	</g>
</g>
<g id="SvgjsG1332" transform="translate(875,519.56667)">
	<path id="SvgjsPath1333" class="st16" d="M0,4c0-2.7,1.3-4,4-4h82c2.7,0,4,1.3,4,4v13c0,2.7-1.3,4-4,4H4c-2.7,0-4-1.3-4-4V4z"/>
	<g id="SvgjsG1334">
		<text transform="matrix(1 0 0 1 9.9792 17.125)" class="st5 st6 st7">SPI1_CS0</text>
	</g>
</g>
<g id="SvgjsG1338" transform="translate(208,419.56666564941406)">
	<path id="SvgjsPath1339" class="st17" d="M-553,12.3c0-2.7,1.3-4,4-4h76c2.7,0,4,1.3,4,4v13c0,2.7-1.3,4-4,4h-76c-2.7,0-4-1.3-4-4
		V12.3z"/>
	<g id="SvgjsG1340">
		<text transform="matrix(1 0 0 1 -544.2007 25.4481)" class="st5 st6 st7">JTAG_CK</text>
	</g>
</g>
<g id="SvgjsG1344" transform="translate(208,439.56666564941406)">
	<path id="SvgjsPath1345" class="st17" d="M-553,12.3c0-2.7,1.3-4,4-4h76c2.7,0,4,1.3,4,4v13c0,2.7-1.3,4-4,4h-76c-2.7,0-4-1.3-4-4
		V12.3z"/>
	<g id="SvgjsG1346">
		<text transform="matrix(1 0 0 1 -545.032 25.4481)" class="st5 st6 st7">JTAG_MS</text>
	</g>
</g>
<g id="SvgjsG1350" transform="translate(208,459.56666564941406)">
	<path id="SvgjsPath1351" class="st17" d="M-553,12.3c0-2.7,1.3-4,4-4h76c2.7,0,4,1.3,4,4v13c0,2.7-1.3,4-4,4h-76c-2.7,0-4-1.3-4-4
		V12.3z"/>
	<g id="SvgjsG1352">
		<text transform="matrix(1 0 0 1 -541.282 25.4481)" class="st5 st6 st7">JTAG_DI</text>
	</g>
</g>
<g id="SvgjsG1356" transform="translate(208,479.56666564941406)">
	<path id="SvgjsPath1357" class="st17" d="M-553,12.3c0-2.7,1.3-4,4-4h76c2.7,0,4,1.3,4,4v13c0,2.7-1.3,4-4,4h-76c-2.7,0-4-1.3-4-4
		V12.3z"/>
	<g id="SvgjsG1358">
		<text transform="matrix(1 0 0 1 -545.032 25.4481)" class="st5 st6 st7">JTAG_DO</text>
	</g>
</g>
<g id="SvgjsG1362" transform="translate(208,499.56666564941406)">
	<path id="SvgjsPath1363" class="st10" d="M-553,12.3c0-2.7,1.3-4,4-4h76c2.7,0,4,1.3,4,4v13c0,2.7-1.3,4-4,4h-76c-2.7,0-4-1.3-4-4
		V12.3z"/>
	<g id="SvgjsG1364">
		<text transform="matrix(1 0 0 1 -550.0417 25.4481)" class="st5 st6 st7">UART0_RX</text>
	</g>
</g>
<g id="SvgjsG1368" transform="translate(208,519.5666656494141)">
	<path id="SvgjsPath1369" class="st10" d="M-553,12.3c0-2.7,1.3-4,4-4h76c2.7,0,4,1.3,4,4v13c0,2.7-1.3,4-4,4h-76c-2.7,0-4-1.3-4-4
		V12.3z"/>
	<g id="SvgjsG1370">
		<text transform="matrix(1 0 0 1 -549.2068 25.4481)" class="st5 st6 st7">UART0_TX</text>
	</g>
</g>
<g id="SvgjsG1374" transform="translate(967,379.56667)">
	<path id="SvgjsPath1375" class="st18" d="M-717,545.6c0-2.7,1.3-4,4-4h76c2.7,0,4,1.3,4,4v13c0,2.7-1.3,4-4,4h-76c-2.7,0-4-1.3-4-4
		V545.6z"/>
	<g id="SvgjsG1376">
		<text transform="matrix(1 0 0 1 -710.8447 558.701)" class="st5 st6 st7">PH_EINT6</text>
	</g>
</g>
<g id="SvgjsG1380" transform="translate(967,399.56667)">
	<path id="SvgjsPath1381" class="st18" d="M-717,545.6c0-2.7,1.3-4,4-4h76c2.7,0,4,1.3,4,4v13c0,2.7-1.3,4-4,4h-76c-2.7,0-4-1.3-4-4
		V545.6z"/>
	<g id="SvgjsG1382">
		<text transform="matrix(1 0 0 1 -710.8447 558.701)" class="st5 st6 st7">PH_EINT7</text>
	</g>
</g>
<g id="SvgjsG1386" transform="translate(967,419.56667)">
	<path id="SvgjsPath1387" class="st18" d="M-717,545.6c0-2.7,1.3-4,4-4h76c2.7,0,4,1.3,4,4v13c0,2.7-1.3,4-4,4h-76c-2.7,0-4-1.3-4-4
		V545.6z"/>
	<g id="SvgjsG1388">
		<text transform="matrix(1 0 0 1 -710.8447 558.701)" class="st5 st6 st7">PH_EINT8</text>
	</g>
</g>
<g id="SvgjsG1392" transform="translate(967,459.56667)">
	<path id="SvgjsPath1393" class="st18" d="M-717,545.6c0-2.7,1.3-4,4-4h76c2.7,0,4,1.3,4,4v13c0,2.7-1.3,4-4,4h-76c-2.7,0-4-1.3-4-4
		V545.6z"/>
	<g id="SvgjsG1394">
		<text transform="matrix(1 0 0 1 -710.8447 558.701)" class="st5 st6 st7">PH_EINT0</text>
	</g>
</g>
<g id="SvgjsG1398" transform="translate(967,479.56667)">
	<path id="SvgjsPath1399" class="st18" d="M-717,545.6c0-2.7,1.3-4,4-4h76c2.7,0,4,1.3,4,4v13c0,2.7-1.3,4-4,4h-76c-2.7,0-4-1.3-4-4
		V545.6z"/>
	<g id="SvgjsG1400">
		<text transform="matrix(1 0 0 1 -710.8447 558.701)" class="st5 st6 st7">PH_EINT1</text>
	</g>
</g>
<g id="SvgjsG1404" transform="translate(967,499.56667)">
	<path id="SvgjsPath1405" class="st18" d="M-717,545.6c0-2.7,1.3-4,4-4h76c2.7,0,4,1.3,4,4v13c0,2.7-1.3,4-4,4h-76c-2.7,0-4-1.3-4-4
		V545.6z"/>
	<g id="SvgjsG1406">
		<text transform="matrix(1 0 0 1 -710.8447 558.701)" class="st5 st6 st7">PH_EINT2</text>
	</g>
</g>
<g id="SvgjsG1410" transform="translate(967,519.56667)">
	<path id="SvgjsPath1411" class="st18" d="M-717,545.6c0-2.7,1.3-4,4-4h76c2.7,0,4,1.3,4,4v13c0,2.7-1.3,4-4,4h-76c-2.7,0-4-1.3-4-4
		V545.6z"/>
	<g id="SvgjsG1412">
		<text transform="matrix(1 0 0 1 -710.8447 558.7011)" class="st5 st6 st7">PH_EINT3</text>
	</g>
</g>
<g id="SvgjsG1416" transform="translate(116,419.56666564941406)">
	<path id="SvgjsPath1417" class="st19" d="M-553,12.3c0-2.7,1.3-4,4-4h82c2.7,0,4,1.3,4,4v13c0,2.7-1.3,4-4,4h-82c-2.7,0-4-1.3-4-4
		V12.3z"/>
	<g id="SvgjsG1418">
		<text transform="matrix(1 0 0 1 -548.0049 25.4481)" class="st5 st6 st7">RMII_TXEN</text>
	</g>
</g>
<g id="SvgjsG1422" transform="translate(116,439.56666564941406)">
	<path id="SvgjsPath1423" class="st19" d="M-553,12.3c0-2.7,1.3-4,4-4h82c2.7,0,4,1.3,4,4v13c0,2.7-1.3,4-4,4h-82c-2.7,0-4-1.3-4-4
		V12.3z"/>
	<g id="SvgjsG1424">
		<text transform="matrix(1 0 0 1 -548.0049 25.4481)" class="st5 st6 st7">RMII_TXCK</text>
	</g>
</g>
<g id="SvgjsG1428" transform="translate(116,459.56666564941406)">
	<path id="SvgjsPath1429" class="st19" d="M-553,12.3c0-2.7,1.3-4,4-4h82c2.7,0,4,1.3,4,4v13c0,2.7-1.3,4-4,4h-82c-2.7,0-4-1.3-4-4
		V12.3z"/>
	<g id="SvgjsG1430">
		<text transform="matrix(1 0 0 1 -527.5813 25.4481)" class="st5 st6 st7">MDIO</text>
	</g>
</g>
<g id="SvgjsG1434" transform="translate(116,479.56666564941406)">
	<path id="SvgjsPath1435" class="st19" d="M-553,12.3c0-2.7,1.3-4,4-4h82c2.7,0,4,1.3,4,4v13c0,2.7-1.3,4-4,4h-82c-2.7,0-4-1.3-4-4
		V12.3z"/>
	<g id="SvgjsG1436">
		<text transform="matrix(1 0 0 1 -525.0801 25.4481)" class="st5 st6 st7">MDC</text>
	</g>
</g>
<g id="SvgjsG1440" transform="translate(1049,379.56667)">
	<path id="SvgjsPath1441" class="st20" d="M-717,545.6c0-2.7,1.3-4,4-4h54c2.7,0,4,1.3,4,4v13c0,2.7-1.3,4-4,4h-54c-2.7,0-4-1.3-4-4
		V545.6z"/>
	<g id="SvgjsG1442">
		<text transform="matrix(1 0 0 1 -712.6711 558.701)" class="st5 st6 st7">PWM_6</text>
	</g>
</g>
<g id="SvgjsG1446" transform="translate(1049,399.56667)">
	<path id="SvgjsPath1447" class="st20" d="M-717,545.6c0-2.7,1.3-4,4-4h54c2.7,0,4,1.3,4,4v13c0,2.7-1.3,4-4,4h-54c-2.7,0-4-1.3-4-4
		V545.6z"/>
	<g id="SvgjsG1448">
		<text transform="matrix(1 0 0 1 -712.6711 558.701)" class="st5 st6 st7">PWM_7</text>
	</g>
</g>
<g id="SvgjsG1452" transform="translate(1049,419.56667)">
	<path id="SvgjsPath1453" class="st20" d="M-717,545.6c0-2.7,1.3-4,4-4h54c2.7,0,4,1.3,4,4v13c0,2.7-1.3,4-4,4h-54c-2.7,0-4-1.3-4-4
		V545.6z"/>
	<g id="SvgjsG1454">
		<text transform="matrix(1 0 0 1 -712.6711 558.701)" class="st5 st6 st7">PWM_8</text>
	</g>
</g>
<g id="SvgjsG1458" transform="translate(1049,459.56667)">
	<path id="SvgjsPath1459" class="st20" d="M-717,545.6c0-2.7,1.3-4,4-4h54c2.7,0,4,1.3,4,4v13c0,2.7-1.3,4-4,4h-54c-2.7,0-4-1.3-4-4
		V545.6z"/>
	<g id="SvgjsG1460">
		<text transform="matrix(1 0 0 1 -712.6711 558.701)" class="st5 st6 st7">PWM_0</text>
	</g>
</g>
<g id="SvgjsG1464" transform="translate(1049,479.56667)">
	<path id="SvgjsPath1465" class="st20" d="M-717,545.6c0-2.7,1.3-4,4-4h54c2.7,0,4,1.3,4,4v13c0,2.7-1.3,4-4,4h-54c-2.7,0-4-1.3-4-4
		V545.6z"/>
	<g id="SvgjsG1466">
		<text transform="matrix(1 0 0 1 -712.6711 558.701)" class="st5 st6 st7">PWM_1</text>
	</g>
</g>
<g id="SvgjsG1470" transform="translate(1049,499.56667)">
	<path id="SvgjsPath1471" class="st20" d="M-717,545.6c0-2.7,1.3-4,4-4h54c2.7,0,4,1.3,4,4v13c0,2.7-1.3,4-4,4h-54c-2.7,0-4-1.3-4-4
		V545.6z"/>
	<g id="SvgjsG1472">
		<text transform="matrix(1 0 0 1 -712.6711 558.701)" class="st5 st6 st7">PWM_2</text>
	</g>
</g>
<g id="SvgjsG1476" transform="translate(1049,519.56667)">
	<path id="SvgjsPath1477" class="st20" d="M-717,545.6c0-2.7,1.3-4,4-4h54c2.7,0,4,1.3,4,4v13c0,2.7-1.3,4-4,4h-54c-2.7,0-4-1.3-4-4
		V545.6z"/>
	<g id="SvgjsG1478">
		<text transform="matrix(1 0 0 1 -712.6711 558.7011)" class="st5 st6 st7">PWM_3</text>
	</g>
</g>
<g id="SvgjsG1482" transform="translate(25,419.56666564941406)">
	<path id="SvgjsPath1483" class="st16" d="M-553,12.3c0-2.7,1.3-4,4-4h82c2.7,0,4,1.3,4,4v13c0,2.7-1.3,4-4,4h-82c-2.7,0-4-1.3-4-4
		V12.3z"/>
	<g id="SvgjsG1484">
		<text transform="matrix(1 0 0 1 -547.5984 25.4481)" class="st5 st6 st7">SPI1_MOSI</text>
	</g>
</g>
<g id="SvgjsG1488" transform="translate(25,439.56666564941406)">
	<path id="SvgjsPath1489" class="st16" d="M-553,12.3c0-2.7,1.3-4,4-4h82c2.7,0,4,1.3,4,4v13c0,2.7-1.3,4-4,4h-82c-2.7,0-4-1.3-4-4
		V12.3z"/>
	<g id="SvgjsG1490">
		<text transform="matrix(1 0 0 1 -543.0208 25.4481)" class="st5 st6 st7">SPI1_CLK</text>
	</g>
</g>
<g id="SvgjsG1494" transform="translate(25,459.56666564941406)">
	<path id="SvgjsPath1495" class="st16" d="M-553,12.3c0-2.7,1.3-4,4-4h82c2.7,0,4,1.3,4,4v13c0,2.7-1.3,4-4,4h-82c-2.7,0-4-1.3-4-4
		V12.3z"/>
	<g id="SvgjsG1496">
		<text transform="matrix(1 0 0 1 -543.0208 25.4481)" class="st5 st6 st7">SPI1_CS0</text>
	</g>
</g>
<g id="SvgjsG1500" transform="translate(24.99999999999997,479.56666564941406)">
	<path id="SvgjsPath1501" class="st16" d="M-553,12.3c0-2.7,1.3-4,4-4h82c2.7,0,4,1.3,4,4v13c0,2.7-1.3,4-4,4h-82c-2.7,0-4-1.3-4-4
		V12.3z"/>
	<g id="SvgjsG1502">
		<text transform="matrix(1 0 0 1 -547.5984 25.4481)" class="st5 st6 st7">SPI1_MISO</text>
	</g>
</g>
<g id="SvgjsG1506" transform="translate(295.00000000000006,340.56666564941406)">
	<path id="SvgjsPath1507" class="st18" d="M-553,12.3c0-2.7,1.3-4,4-4h82c2.7,0,4,1.3,4,4v13c0,2.7-1.3,4-4,4h-82c-2.7,0-4-1.3-4-4
		V12.3z"/>
	<g id="SvgjsG1508">
		<text transform="matrix(1 0 0 1 -543.0098 25.4481)" class="st5 st6 st7">PF_EINT6</text>
	</g>
</g>
<g id="SvgjsG1512" transform="translate(295.00000000000006,379.56666564941406)">
	<path id="SvgjsPath1513" class="st18" d="M-553,12.3c0-2.7,1.3-4,4-4h82c2.7,0,4,1.3,4,4v13c0,2.7-1.3,4-4,4h-82c-2.7,0-4-1.3-4-4
		V12.3z"/>
	<g id="SvgjsG1514">
		<text transform="matrix(1 0 0 1 -544.2622 25.4481)" class="st5 st6 st7">PG_EINT7</text>
	</g>
</g>
<g id="SvgjsG1518" transform="translate(295.00000000000006,419.56666564941406)">
	<path id="SvgjsPath1519" class="st18" d="M-553,12.3c0-2.7,1.3-4,4-4h82c2.7,0,4,1.3,4,4v13c0,2.7-1.3,4-4,4h-82c-2.7,0-4-1.3-4-4
		V12.3z"/>
	<g id="SvgjsG1520">
		<text transform="matrix(1 0 0 1 -548.0159 25.4481)" class="st5 st6 st7">PH_EINT12</text>
	</g>
</g>
<g id="SvgjsG1524" transform="translate(295.00000000000006,439.56666564941406)">
	<path id="SvgjsPath1525" class="st18" d="M-553,12.3c0-2.7,1.3-4,4-4h82c2.7,0,4,1.3,4,4v13c0,2.7-1.3,4-4,4h-82c-2.7,0-4-1.3-4-4
		V12.3z"/>
	<g id="SvgjsG1526">
		<text transform="matrix(1 0 0 1 -547.4592 25.4481)" class="st5 st6 st7">PH_EINT11</text>
	</g>
</g>
<g id="SvgjsG1530" transform="translate(295.00000000000006,459.56666564941406)">
	<path id="SvgjsPath1531" class="st18" d="M-553,12.3c0-2.7,1.3-4,4-4h82c2.7,0,4,1.3,4,4v13c0,2.7-1.3,4-4,4h-82c-2.7,0-4-1.3-4-4
		V12.3z"/>
	<g id="SvgjsG1532">
		<text transform="matrix(1 0 0 1 -548.0159 25.4481)" class="st5 st6 st7">PH_EINT14</text>
	</g>
</g>
<g id="SvgjsG1536" transform="translate(295.00000000000006,479.56666564941406)">
	<path id="SvgjsPath1537" class="st18" d="M-553,12.3c0-2.7,1.3-4,4-4h82c2.7,0,4,1.3,4,4v13c0,2.7-1.3,4-4,4h-82c-2.7,0-4-1.3-4-4
		V12.3z"/>
	<g id="SvgjsG1538">
		<text transform="matrix(1 0 0 1 -548.0159 25.4481)" class="st5 st6 st7">PH_EINT13</text>
	</g>
</g>
<g id="SvgjsG1542" transform="translate(295.00000000000006,499.56666564941406)">
	<path id="SvgjsPath1543" class="st18" d="M-553,12.3c0-2.7,1.3-4,4-4h82c2.7,0,4,1.3,4,4v13c0,2.7-1.3,4-4,4h-82c-2.7,0-4-1.3-4-4
		V12.3z"/>
	<g id="SvgjsG1544">
		<text transform="matrix(1 0 0 1 -548.0159 25.4481)" class="st5 st6 st7">PH_EINT10</text>
	</g>
</g>
<g id="SvgjsG1548" transform="translate(295.00000000000006,519.5666656494141)">
	<path id="SvgjsPath1549" class="st18" d="M-553,12.3c0-2.7,1.3-4,4-4h82c2.7,0,4,1.3,4,4v13c0,2.7-1.3,4-4,4h-82c-2.7,0-4-1.3-4-4
		V12.3z"/>
	<g id="SvgjsG1550">
		<text transform="matrix(1 0 0 1 -543.8447 25.4481)" class="st5 st6 st7">PH_EINT9</text>
	</g>
</g>
<g id="SvgjsG1554" transform="translate(116,499.56666564941406)">
	<path id="SvgjsPath1555" class="st19" d="M-553,12.3c0-2.7,1.3-4,4-4h82c2.7,0,4,1.3,4,4v13c0,2.7-1.3,4-4,4h-82c-2.7,0-4-1.3-4-4
		V12.3z"/>
	<g id="SvgjsG1556">
		<text transform="matrix(1 0 0 1 -547.1736 25.4481)" class="st5 st6 st7">RMII_TXD0</text>
	</g>
</g>
<g id="SvgjsG1560" transform="translate(116,519.5666656494141)">
	<path id="SvgjsPath1561" class="st19" d="M-553,12.3c0-2.7,1.3-4,4-4h82c2.7,0,4,1.3,4,4v13c0,2.7-1.3,4-4,4h-82c-2.7,0-4-1.3-4-4
		V12.3z"/>
	<g id="SvgjsG1562">
		<text transform="matrix(1 0 0 1 -547.1736 25.4481)" class="st5 st6 st7">RMII_TXD1</text>
	</g>
</g>
<g id="SvgjsG1566" transform="translate(25,499.56666564941406)">
	<path id="SvgjsPath1567" class="st11" d="M-553,12.3c0-2.7,1.3-4,4-4h82c2.7,0,4,1.3,4,4v13c0,2.7-1.3,4-4,4h-82c-2.7,0-4-1.3-4-4
		V12.3z"/>
	<g id="SvgjsG1568">
		<text transform="matrix(1 0 0 1 -545.5073 25.4481)" class="st5 st6 st7">TWI3_SDA</text>
	</g>
</g>
<g id="SvgjsG1572" transform="translate(25,519.5666656494141)">
	<path id="SvgjsPath1573" class="st11" d="M-553,12.3c0-2.7,1.3-4,4-4h82c2.7,0,4,1.3,4,4v13c0,2.7-1.3,4-4,4h-82c-2.7,0-4-1.3-4-4
		V12.3z"/>
	<g id="SvgjsG1574">
		<text transform="matrix(1 0 0 1 -545.5073 25.4481)" class="st5 st6 st7">TWI3_SCK</text>
	</g>
</g>
<g id="SvgjsG1578" transform="translate(1214,399.56667)">
	<path id="SvgjsPath1579" class="st10" d="M-717,545.6c0-2.7,1.3-4,4-4h76c2.7,0,4,1.3,4,4v13c0,2.7-1.3,4-4,4h-76c-2.7,0-4-1.3-4-4
		V545.6z"/>
	<g id="SvgjsG1580">
		<text transform="matrix(1 0 0 1 -713.2068 558.701)" class="st5 st6 st7">UART0_TX</text>
	</g>
</g>
<g id="SvgjsG1584" transform="translate(1214,419.56667)">
	<path id="SvgjsPath1585" class="st10" d="M-717,545.6c0-2.7,1.3-4,4-4h76c2.7,0,4,1.3,4,4v13c0,2.7-1.3,4-4,4h-76c-2.7,0-4-1.3-4-4
		V545.6z"/>
	<g id="SvgjsG1586">
		<text transform="matrix(1 0 0 1 -714.0417 558.701)" class="st5 st6 st7">UART0_RX</text>
	</g>
</g>
<g id="SvgjsG1590" transform="translate(1112,459.56667)">
	<path id="SvgjsPath1591" class="st10" d="M-717,545.6c0-2.7,1.3-4,4-4h98c2.7,0,4,1.3,4,4v13c0,2.7-1.3,4-4,4h-98c-2.7,0-4-1.3-4-4
		V545.6z"/>
	<g id="SvgjsG1592">
		<text transform="matrix(1 0 0 1 -702.2068 558.701)" class="st5 st6 st7">UART3_TX</text>
	</g>
</g>
<g id="SvgjsG1596" transform="translate(1112,479.56667)">
	<path id="SvgjsPath1597" class="st10" d="M-717,545.6c0-2.7,1.3-4,4-4h98c2.7,0,4,1.3,4,4v13c0,2.7-1.3,4-4,4h-98c-2.7,0-4-1.3-4-4
		V545.6z"/>
	<g id="SvgjsG1598">
		<text transform="matrix(1 0 0 1 -703.0417 558.701)" class="st5 st6 st7">UART3_RX</text>
	</g>
</g>
<g id="SvgjsG1602" transform="translate(1112,499.56667)">
	<path id="SvgjsPath1603" class="st10" d="M-717,545.6c0-2.7,1.3-4,4-4h98c2.7,0,4,1.3,4,4v13c0,2.7-1.3,4-4,4h-98c-2.7,0-4-1.3-4-4
		V545.6z"/>
	<g id="SvgjsG1604">
		<text transform="matrix(1 0 0 1 -707.623 558.701)" class="st5 st6 st7">UART3_CTS</text>
	</g>
</g>
<g id="SvgjsG1608" transform="translate(1112,519.56667)">
	<path id="SvgjsPath1609" class="st10" d="M-717,545.6c0-2.7,1.3-4,4-4h98c2.7,0,4,1.3,4,4v13c0,2.7-1.3,4-4,4h-98c-2.7,0-4-1.3-4-4
		V545.6z"/>
	<g id="SvgjsG1610">
		<text transform="matrix(1 0 0 1 -707.4875 558.7011)" class="st5 st6 st7">UART3_RTS</text>
	</g>
</g>
<g id="SvgjsG1614" transform="translate(1112,379.56667)">
	<path id="SvgjsPath1615" class="st19" d="M-717,545.6c0-2.7,1.3-4,4-4h98c2.7,0,4,1.3,4,4v13c0,2.7-1.3,4-4,4h-98c-2.7,0-4-1.3-4-4
		V545.6z"/>
	<g id="SvgjsG1616">
		<text transform="matrix(1 0 0 1 -704.0085 558.701)" class="st5 st6 st7">RMII_RXD0</text>
	</g>
</g>
<g id="SvgjsG1620" transform="translate(1112,399.56667)">
	<path id="SvgjsPath1621" class="st19" d="M-717,545.6c0-2.7,1.3-4,4-4h98c2.7,0,4,1.3,4,4v13c0,2.7-1.3,4-4,4h-98c-2.7,0-4-1.3-4-4
		V545.6z"/>
	<g id="SvgjsG1622">
		<text transform="matrix(1 0 0 1 -714.4272 558.701)" class="st5 st6 st7">RMII_CRS_DV</text>
	</g>
</g>
<g id="SvgjsG1626" transform="translate(1112,419.56667)">
	<path id="SvgjsPath1627" class="st19" d="M-717,545.6c0-2.7,1.3-4,4-4h98c2.7,0,4,1.3,4,4v13c0,2.7-1.3,4-4,4h-98c-2.7,0-4-1.3-4-4
		V545.6z"/>
	<g id="SvgjsG1628">
		<text transform="matrix(1 0 0 1 -704.8398 558.701)" class="st5 st6 st7">RMII_RXER</text>
	</g>
</g>
<g id="SvgjsG1632" transform="translate(532.5,149.56666564941406)">
	<path id="SvgjsPath1633" class="st11" d="M-1328-40.6c0-2.7,1.3-4,4-4h35c2.7,0,4,1.3,4,4v13c0,2.7-1.3,4-4,4h-35c-2.7,0-4-1.3-4-4
		V-40.6z"/>
	<g id="SvgjsG1634">
		<text transform="matrix(1 0 0 1 -1308.5837 -27.5043)" class="st5 st6 st7"> </text>
	</g>
</g>
<g id="SvgjsG1638" transform="translate(532.5,116.56666564941406)">
	<path id="SvgjsPath1639" class="st19" d="M-1328-40.6c0-2.7,1.3-4,4-4h35c2.7,0,4,1.3,4,4v13c0,2.7-1.3,4-4,4h-35c-2.7,0-4-1.3-4-4
		V-40.6z"/>
	<g id="SvgjsG1640">
		<text transform="matrix(1 0 0 1 -1308.5837 -27.5043)" class="st5 st6 st7"> </text>
	</g>
</g>
<g id="SvgjsG1644" transform="translate(532.5,82.56666564941406)">
	<path id="SvgjsPath1645" class="st18" d="M-1328-40.6c0-2.7,1.3-4,4-4h35c2.7,0,4,1.3,4,4v13c0,2.7-1.3,4-4,4h-35c-2.7,0-4-1.3-4-4
		V-40.6z"/>
	<g id="SvgjsG1646">
		<text transform="matrix(1 0 0 1 -1308.5837 -27.5043)" class="st5 st6 st7"> </text>
	</g>
</g>
<g id="SvgjsG1650" transform="translate(791.5,149.56666564941406)">
	
		<linearGradient id="SvgjsPath1651_1_" gradientUnits="userSpaceOnUse" x1="-933.069" y1="-0.5055" x2="-934.069" y2="0.4945" gradientTransform="matrix(43 0 0 21 38837 -34.0004)">
		<stop  offset="0" style="stop-color:#D8EBFF"/>
		<stop  offset="1" style="stop-color:#9CAFC3"/>
	</linearGradient>
	<path id="SvgjsPath1651" class="st21" d="M-1328-40.6c0-2.7,1.3-4,4-4h35c2.7,0,4,1.3,4,4v13c0,2.7-1.3,4-4,4h-35c-2.7,0-4-1.3-4-4
		V-40.6z"/>
	<g id="SvgjsG1655">
		<text transform="matrix(1 0 0 1 -1308.5837 -27.5043)" class="st6 st7"> </text>
	</g>
</g>
<g id="SvgjsG1659" transform="translate(791.5,116.56666564941406)">
	<path id="SvgjsPath1660" class="st10" d="M-1328-40.6c0-2.7,1.3-4,4-4h35c2.7,0,4,1.3,4,4v13c0,2.7-1.3,4-4,4h-35c-2.7,0-4-1.3-4-4
		V-40.6z"/>
	<g id="SvgjsG1661">
		<text transform="matrix(1 0 0 1 -1308.5837 -27.5043)" class="st5 st6 st7"> </text>
	</g>
</g>
<g id="SvgjsG1665" transform="translate(791.5,82.56666564941406)">
	<path id="SvgjsPath1666" class="st16" d="M-1328-40.6c0-2.7,1.3-4,4-4h35c2.7,0,4,1.3,4,4v13c0,2.7-1.3,4-4,4h-35c-2.7,0-4-1.3-4-4
		V-40.6z"/>
	<g id="SvgjsG1667">
		<text transform="matrix(1 0 0 1 -1308.5837 -27.5043)" class="st5 st6 st7"> </text>
	</g>
</g>
<g id="SvgjsG1671" transform="translate(791.5,183.56666564941406)">
	<path id="SvgjsPath1672" class="st20" d="M-1328-40.6c0-2.7,1.3-4,4-4h35c2.7,0,4,1.3,4,4v13c0,2.7-1.3,4-4,4h-35c-2.7,0-4-1.3-4-4
		V-40.6z"/>
	<g id="SvgjsG1673">
		<text transform="matrix(1 0 0 1 -1308.5837 -27.5043)" class="st5 st6 st7"> </text>
	</g>
</g>
<g id="SvgjsG1677" transform="translate(1021.5,149.56666564941406)">
	<path id="SvgjsPath1678" class="st15" d="M-1328-40.6c0-2.7,1.3-4,4-4h35c2.7,0,4,1.3,4,4v13c0,2.7-1.3,4-4,4h-35c-2.7,0-4-1.3-4-4
		V-40.6z"/>
	<g id="SvgjsG1679">
		<text transform="matrix(1 0 0 1 -1308.5837 -27.5043)" class="st6 st7"> </text>
	</g>
</g>
<g id="SvgjsG1683" transform="translate(1021.5,116.56666564941406)">
	<path id="SvgjsPath1684" class="st9" d="M-1328-40.6c0-2.7,1.3-4,4-4h35c2.7,0,4,1.3,4,4v13c0,2.7-1.3,4-4,4h-35c-2.7,0-4-1.3-4-4
		V-40.6z"/>
	<g id="SvgjsG1685">
		<text transform="matrix(1 0 0 1 -1308.5837 -27.5043)" class="st5 st6 st7"> </text>
	</g>
</g>
<g id="SvgjsG1689" transform="translate(1021.5,82.56666564941406)">
	<path id="SvgjsPath1690" class="st8" d="M-1328-40.6c0-2.7,1.3-4,4-4h35c2.7,0,4,1.3,4,4v13c0,2.7-1.3,4-4,4h-35c-2.7,0-4-1.3-4-4
		V-40.6z"/>
	<g id="SvgjsG1691">
		<text transform="matrix(1 0 0 1 -1308.5837 -27.5043)" class="st5 st6 st7"> </text>
	</g>
</g>
<g id="SvgjsG1695" transform="translate(1021.5,183.56666564941406)">
	<path id="SvgjsPath1696" d="M-1328-40.6c0-2.7,1.3-4,4-4h35c2.7,0,4,1.3,4,4v13c0,2.7-1.3,4-4,4h-35c-2.7,0-4-1.3-4-4V-40.6z"/>
	<g id="SvgjsG1697">
		<text transform="matrix(1 0 0 1 -1308.5837 -27.5043)" class="st6 st7" style="fill:#CDCDCD;"> </text>
	</g>
</g>
<g id="SvgjsG1701" transform="translate(588.5836423587015,73.06666564941406)">
	<path id="SvgjsPath1702" class="st1" d="M-1328-44.6h204.8v40H-1328V-44.6z"/>
	<g id="SvgjsG1703">
		<text transform="matrix(1 0 0 1 -1328 -16.2543)" class="st5 st6" style="font-size:17px;">External Interrupt</text>
	</g>
</g>
<g id="SvgjsG1707" transform="translate(590,107.06666564941406)">
	<path id="SvgjsPath1708" class="st1" d="M-1328-44.6h120v40h-120V-44.6z"/>
	<g id="SvgjsG1709">
		<text transform="matrix(1 0 0 1 -1328 -16.2543)" class="st5 st6" style="font-size:17px;">Ethernet</text>
	</g>
</g>
<g id="SvgjsG1713" transform="translate(590,140.06666564941406)">
	<path id="SvgjsPath1714" class="st1" d="M-1328-44.6h120v40h-120V-44.6z"/>
	<g id="SvgjsG1715">
		<text transform="matrix(1 0 0 1 -1328 -16.2543)" class="st5 st6" style="font-size:17px;">TWI</text>
	</g>
</g>
<g id="SvgjsG1719" transform="translate(844,73.06666564941406)">
	<path id="SvgjsPath1720" class="st1" d="M-1328-44.6h120v40h-120V-44.6z"/>
	<g id="SvgjsG1721">
		<text transform="matrix(1 0 0 1 -1328 -16.2543)" class="st5 st6" style="font-size:17px;">SPI</text>
	</g>
</g>
<g id="SvgjsG1725" transform="translate(844,107.06666564941406)">
	<path id="SvgjsPath1726" class="st1" d="M-1328-44.6h120v40h-120V-44.6z"/>
	<g id="SvgjsG1727">
		<text transform="matrix(1 0 0 1 -1328 -16.2543)" class="st5 st6" style="font-size:17px;">UART</text>
	</g>
</g>
<g id="SvgjsG1731" transform="translate(844,140.06666564941406)">
	<path id="SvgjsPath1732" class="st1" d="M-1328-44.6h120v40h-120V-44.6z"/>
	<g id="SvgjsG1733">
		<text transform="matrix(1 0 0 1 -1328 -16.2543)" class="st5 st6" style="font-size:17px;">CPU UART</text>
	</g>
</g>
<g id="SvgjsG1737" transform="translate(844,174.06666564941406)">
	<path id="SvgjsPath1738" class="st1" d="M-1328-44.6h120v40h-120V-44.6z"/>
	<g id="SvgjsG1739">
		<text transform="matrix(1 0 0 1 -1328 -16.2543)" class="st5 st6" style="font-size:17px;">PWM Chanels</text>
	</g>
</g>
<g id="SvgjsG1743" transform="translate(1067.5427208709418,73.06666564941406)">
	<path id="SvgjsPath1744" class="st1" d="M-1328-44.6h162.9v40H-1328V-44.6z"/>
	<g id="SvgjsG1745">
		<text transform="matrix(1 0 0 1 -1328 -16.2543)" class="st5 st6" style="font-size:17px;">SD card Detect</text>
	</g>
</g>
<g id="SvgjsG1749" transform="translate(1070,107.06666564941406)">
	<path id="SvgjsPath1750" class="st1" d="M-1328-44.6h120v40h-120V-44.6z"/>
	<g id="SvgjsG1751">
		<text transform="matrix(1 0 0 1 -1328 -16.2543)" class="st5 st6" style="font-size:17px;">CPU Reset</text>
	</g>
</g>
<g id="SvgjsG1755" transform="translate(1070,140.0666656494141)">
	<path id="SvgjsPath1756" class="st1" d="M-1328-44.6h120v40h-120V-44.6z"/>
	<g id="SvgjsG1757">
		<text transform="matrix(1 0 0 1 -1328 -16.2543)" class="st5 st6" style="font-size:17px;">Power 5V</text>
	</g>
</g>
<g id="SvgjsG1761" transform="translate(1070,174.06666564941406)">
	<path id="SvgjsPath1762" class="st1" d="M-1328-44.6h120v40h-120V-44.6z"/>
	<g id="SvgjsG1763">
		<text transform="matrix(1 0 0 1 -1328 -16.2543)" class="st5 st6" style="font-size:17px;">Power GND</text>
	</g>
</g>
<g id="SvgjsG1767" transform="translate(295.00000000000006,399.56666564941406)">
	<path id="SvgjsPath1768" class="st18" d="M-553,12.3c0-2.7,1.3-4,4-4h82c2.7,0,4,1.3,4,4v13c0,2.7-1.3,4-4,4h-82c-2.7,0-4-1.3-4-4
		V12.3z"/>
	<g id="SvgjsG1769">
		<text transform="matrix(1 0 0 1 -544.2622 25.4481)" class="st5 st6 st7">PG_EINT6</text>
	</g>
</g>
<g id="SvgjsG1773">
	<path class="st5" d="M0,0"/>
	<path id="SvgjsPath1776" class="st3" d="M400.8,299.4l-13,4.5l13,4.5"/>
	<circle id="SvgjsCircle1778" class="st2" cx="532.9" cy="304.6" r="4"/>
	<path id="SvgjsPath1774" marker-end="url(#SvgjsMarker1777)" marker-start="url(#SvgjsMarker1775)" class="st2" d="M537.9,304.6"/>
	<rect id="SvgjsRect1779" x="431.9" y="294.7" class="st4" width="60" height="19"/>
	<text transform="matrix(1 0 0 1 435.8466 310.8666)" class="st5 st6 st7">S1 (0Ω)</text>
</g>
<g id="SvgjsG1783" transform="translate(1021.5232332516339,218.4792469536655)">
	<path id="SvgjsPath1784" class="st22" d="M-1328-40.6c0-2.7,1.3-4,4-4h35c2.7,0,4,1.3,4,4v13c0,2.7-1.3,4-4,4h-35c-2.7,0-4-1.3-4-4
		V-40.6z"/>
	<g id="SvgjsG1785">
		<text transform="matrix(1 0 0 1 -1308.5837 -27.5043)" class="st5 st6 st7"> </text>
	</g>
</g>
<g id="SvgjsG1789" transform="translate(1074.5203035641339,209.3252743032209)">
	<path id="SvgjsPath1790" class="st1" d="M-1328-44.6h120v40h-120V-44.6z"/>
	<g id="SvgjsG1791">
		<text transform="matrix(1 0 0 1 -1328 -16.2543)" class="st5 st6" style="font-size:17px;">GPADC0</text>
	</g>
</g>
<g id="SvgjsG1795" transform="translate(296.73193359375,293.59940543774974)">
	<path id="SvgjsPath1796" class="st22" d="M0,4c0-2.7,1.3-4,4-4h81.1c2.7,0,4,1.3,4,4v12.7c0,2.7-1.3,4-4,4H4c-2.7,0-4-1.3-4-4V4z"
		/>
	<g id="SvgjsG1797">
		<text transform="matrix(1 0 0 1 14.7144 16.9524)" class="st5 st6 st7">GPADC0</text>
	</g>
</g>
<g id="SvgjsG1801" transform="translate(16)">
	<path class="st5" d="M0,0"/>
	<path id="SvgjsPath1804" class="st3" d="M933.2,310.2l13-4.5l-13-4.5"/>
	<circle id="SvgjsCircle1806" class="st2" cx="800.6" cy="305.7" r="4"/>
	<path id="SvgjsPath1802" marker-end="url(#SvgjsMarker1805)" marker-start="url(#SvgjsMarker1803)" class="st2" d="M795.6,305.7"/>
	<rect id="SvgjsRect1807" x="830.4" y="296.2" class="st4" width="83" height="19"/>
	<text transform="matrix(1 0 0 1 835.8436 312.3579)" class="st5 st6 st7">S2 (5.1kΩ)</text>
</g>
<g id="SvgjsG1811" transform="translate(968.02605,295.30196)">
	<path id="SvgjsPath1812" class="st22" d="M0,4c0-2.7,1.3-4,4-4h73c2.7,0,4,1.3,4,4v13.3c0,2.7-1.3,4-4,4H4c-2.7,0-4-1.3-4-4V4z"/>
	<g id="SvgjsG1813">
		<text transform="matrix(1 0 0 1 10.2144 17.2776)" class="st5 st6 st7">GPADC0</text>
	</g>
</g>
</svg>
